<?xml version="1.0" standalone="no"?>
<!DOCTYPE svg PUBLIC "-//W3C//DTD SVG 1.1//EN" "http://www.w3.org/Graphics/SVG/1.1/DTD/svg11.dtd" >
<!--
2013-9-30: Created.
-->
<svg>
<metadata>
Created by iconfont
</metadata>
<defs>

<font id="iconfont" horiz-adv-x="1024" >
  <font-face
    font-family="iconfont"
    font-weight="500"
    font-stretch="normal"
    units-per-em="1024"
    ascent="896"
    descent="-128"
  />
    <missing-glyph />
    
    <glyph glyph-name="x" unicode="x" horiz-adv-x="1001"
d="M281 543q-27 -1 -53 -1h-83q-18 0 -36.5 -6t-32.5 -18.5t-23 -32t-9 -45.5v-76h912v41q0 16 -0.5 30t-0.5 18q0 13 -5 29t-17 29.5t-31.5 22.5t-49.5 9h-133v-97h-438v97zM955 310v-52q0 -23 0.5 -52t0.5 -58t-10.5 -47.5t-26 -30t-33 -16t-31.5 -4.5q-14 -1 -29.5 -0.5
t-29.5 0.5h-32l-45 128h-439l-44 -128h-29h-34q-20 0 -45 1q-25 0 -41 9.5t-25.5 23t-13.5 29.5t-4 30v167h911zM163 247q-12 0 -21 -8.5t-9 -21.5t9 -21.5t21 -8.5q13 0 22 8.5t9 21.5t-9 21.5t-22 8.5zM316 123q-8 -26 -14 -48q-5 -19 -10.5 -37t-7.5 -25t-3 -15t1 -14.5
t9.5 -10.5t21.5 -4h37h67h81h80h64h36q23 0 34 12t2 38q-5 13 -9.5 30.5t-9.5 34.5q-5 19 -11 39h-368zM336 498v228q0 11 2.5 23t10 21.5t20.5 15.5t34 6h188q31 0 51.5 -14.5t20.5 -52.5v-227h-327z" />
    

    
    <glyph glyph-name="rss" unicode="&#58912;" d="M512.2862 833.6022c-248.4765 0-449.9073-201.4299-449.9073-449.9073s201.4299-449.9073 449.9073-449.9073 449.9073 201.4299 449.9073 449.9073S760.7627 833.6022 512.2862 833.6022zM334.052 160.21680000000003c-25.4394 0-46.0611 20.6244-46.0611 46.0638 0 25.4412 20.6226 46.0638 46.0611 46.0638s46.0638-20.6226 46.0638-46.0638C380.1158 180.84119999999996 359.4914 160.21680000000003 334.052 160.21680000000003zM518.2667 159.30420000000004c0 127.4004-103.6449 231.0426-230.9634 231.0426L287.3033 487.6251c181.4049 0 328.3056-147.0618 328.3056-328.3218L518.2667 159.30330000000004zM695.1311 159.30420000000004c0 224.892-182.8701 407.9034-407.8278 407.9034L287.3033 664.4931c279.0405 0 505.1826-226.278 505.1826-505.1889L695.1311 159.30420000000004z"  horiz-adv-x="1024" />

    
    <glyph glyph-name="link1" unicode="&#59071;" d="M545.856 256c-0.416 0-0.8 0-1.216 0-17.216 0-33.12 13.12-44.832 25.952l-36.992 43.392c-11.904 13.056-10.944 34.688 2.112 46.56 13.088 11.936 33.312 11.648 45.216-1.408l36.992-40.256 173.472 179.136-49.888 54.144-72-74.144c-12.48-12.544-32.704-12.672-45.248-0.192-12.576 12.416-12.672 32.704-0.256 45.248l73.44 74.176c12.128 12.256 28.992 18.336 45.408 18.752 17.184-0.16 33.184-7.168 45.056-19.68l49.888-52.512c23.872-25.12 23.52-65.728-0.736-90.464l-176-184.448C578.272 268.128 562.592 256 545.856 256zM351.968 141.408c-16.32 0-32.64 6.048-45.088 18.208l-50.432 49.216c-12.224 11.936-19.04 27.936-19.2 45.056-0.128 17.152 6.4 33.28 18.464 45.44l179.04 187.104C446.784 498.56 462.848 512 479.968 512c0.032 0 0.096 0 0.16 0 17.088 0 33.12-13.344 45.152-25.376l41.312-44.672c12.512-12.512 12.512-34.432 0-46.912-12.512-12.512-32.736-13.344-45.248-0.832l-41.312 40.896-178.848-180.608 50.4-48.96 74.944 73.344c12.608 12.416 32.8 12.32 45.28-0.288 12.416-12.576 12.32-32.832-0.224-45.248l-74.176-73.408C384.896 147.616 368.416 141.408 351.968 141.408zM512-64C264.96-64 64 136.96 64 384S264.96 832 512 832s448-200.96 448-448S759.04-64 512-64zM512 768C300.256 768 128 595.744 128 384c0-211.744 172.256-384 384-384 211.744 0 384 172.256 384 384C896 595.744 723.744 768 512 768z"  horiz-adv-x="1024" />

    
    <glyph glyph-name="service1" unicode="&#59135;" d="M856.74666667 302.08000000000004c6.82666667 17.06666667 0 37.54666667-17.06666667 44.37333333-17.06666667 6.82666667-37.54666667 0-44.37333333-17.06666666-17.06666667-30.72-85.33333333-47.78666667-180.90666667-47.78666667-20.48 0-34.13333333-13.65333333-34.13333333-34.13333333s13.65333333-34.13333333 34.13333333-34.13333334h10.24c88.74666667 0 197.97333333 17.06666667 232.10666667 88.74666667zM931.84 462.50666667l-44.37333333 17.06666666c-13.65333333 194.56-177.49333333 351.57333333-375.46666667 351.57333334-201.38666667 0-365.22666667-160.42666667-375.46666667-358.4l-20.48-13.65333334c-6.82666667-6.82666667-13.65333333-17.06666667-13.65333333-27.30666666v-143.36c0-20.48 13.65333333-34.13333333 34.13333333-34.13333334s34.13333333 13.65333333 34.13333334 34.13333334v122.88l20.48 13.65333333c6.82666667 6.82666667 13.65333333 17.06666667 13.65333333 30.72 0 170.66666667 136.53333333 307.2 307.2 307.2s307.2-136.53333333 307.2-307.2c0-13.65333333 10.24-27.30666667 23.89333333-30.72l44.37333334-17.06666667v-116.05333333c0-20.48 13.65333333-34.13333333 34.13333333-34.13333333s34.13333333 13.65333333 34.13333333 34.13333333v143.36c0 10.24-10.24 23.89333333-23.89333333 27.30666667zM512 237.22666667c-105.81333333 0-194.56 85.33333333-194.56 194.56 0 105.81333333 85.33333333 194.56 194.56 194.56 105.81333333 0 194.56-85.33333333 194.56-194.56 0-13.65333333 0-27.30666667-3.41333333-40.96-3.41333333-17.06666667 6.82666667-37.54666667 27.30666666-40.96 17.06666667-3.41333333 37.54666667 6.82666667 40.96 27.30666666 3.41333333 17.06666667 6.82666667 37.54666667 6.82666667 54.61333334 0 143.36-116.05333333 262.82666667-262.82666667 262.82666666s-262.82666667-116.05333333-262.82666666-262.82666666c0-92.16 47.78666667-170.66666667 119.46666666-218.45333334-119.46666667-40.96-208.21333333-136.53333333-232.10666666-262.82666666-3.41333333-17.06666667 6.82666667-37.54666667 27.30666666-40.96h6.82666667c17.06666667 0 30.72 10.24 34.13333333 27.30666666 27.30666667 139.94666667 150.18666667 232.10666667 307.2 232.10666667 20.48 0 34.13333333 13.65333333 34.13333334 34.13333333-3.41333333 20.48-17.06666667 34.13333333-37.54666667 34.13333334zM771.41333333 172.37333333000004c-13.65333333 10.24-37.54666667 10.24-47.78666666-6.82666666-10.24-13.65333333-10.24-37.54666667 6.82666666-47.78666667 47.78666667-37.54666667 105.81333333-95.57333333 122.88-184.32 3.41333333-17.06666667 17.06666667-27.30666667 34.13333334-27.30666667h6.82666666c17.06666667 3.41333333 30.72 20.48 27.30666667 40.96-20.48 109.22666667-92.16 180.90666667-150.18666667 225.28z"  horiz-adv-x="1024" />

    
    <glyph glyph-name="send" unicode="&#58913;" d="M737-66l-297.7875 223.36875L849.5 721.5l-528.4125-475.59375L62 440.25l900 393.75L737-66zM287-66l0 225 168.75-112.5L287-66z"  horiz-adv-x="1024" />

    
    <glyph glyph-name="countdownfill" unicode="&#59143;" d="M580.26666667 782.22222222l-136.53333334 0c-18.8416 0-34.13333333 15.29173333-34.13333333 34.13333333s15.29173333 34.13333333 34.13333333 34.13333334l136.53333334 0c18.87573333 0 34.13333333-15.29173333 34.13333333-34.13333334S599.1424 782.22222222 580.26666667 782.22222222zM839.44106667 583.5320888900001l38.02453333 38.02453333c13.34613333 13.34613333 13.34613333 34.9184 0 48.26453333s-34.9184 13.34613333-48.26453333 0l-35.08906667-35.08906666C720.55466667 704.77368889 621.32906667 748.08888889 512 748.08888889 286.13973333 748.08888889 102.4 564.34915555 102.4 338.48888889c0-225.86026667 183.73973333-409.6 409.6-409.6 225.86026667 0 409.6 183.73973333 409.6 409.6C921.6 430.40995555 890.7776 515.09475555 839.44106667 583.5320888900001zM477.86666667 679.82222222c0 18.8416 15.29173333 34.13333333 34.13333333 34.13333333s34.13333333-15.29173333 34.13333333-34.13333333l0-34.13333333c0-18.8416-15.29173333-34.13333333-34.13333333-34.13333334s-34.13333333 15.29173333-34.13333333 34.13333334L477.86666667 679.82222222zM204.8 304.35555554999996L170.66666667 304.35555554999996c-18.8416 0-34.13333333 15.2576-34.13333334 34.13333334s15.29173333 34.13333333 34.13333334 34.13333333l34.13333333 0c18.8416 0 34.13333333-15.2576 34.13333333-34.13333333S223.6416 304.35555554999996 204.8 304.35555554999996zM546.13333333-2.844444449999969c0-18.87573333-15.29173333-34.13333333-34.13333333-34.13333333s-34.13333333 15.2576-34.13333333 34.13333333l0 34.13333334c0 18.87573333 15.29173333 34.13333333 34.13333333 34.13333333s34.13333333-15.2576 34.13333333-34.13333333L546.13333333-2.844444449999969zM704 448.36408889l-170.66666667-136.53333334C527.01866667 306.77902222 519.50933333 304.35555554999996 512 304.35555554999996c-10.00106667 0-19.93386667 4.36906667-26.65813333 12.8-11.776 14.7456-9.38666667 36.21546667 5.3248 47.99146667l170.66666666 136.53333333c14.77973333 11.81013333 36.21546667 9.38666667 47.99146667-5.3248C721.1008 481.60995555 718.71146667 460.14008889 704 448.36408889zM853.33333333 304.35555554999996l-34.13333333 0c-18.87573333 0-34.13333333 15.2576-34.13333333 34.13333334s15.2576 34.13333333 34.13333333 34.13333333l34.13333333 0c18.87573333 0 34.13333333-15.2576 34.13333334-34.13333333S872.20906667 304.35555554999996 853.33333333 304.35555554999996z"  horiz-adv-x="1024" />

    
    <glyph glyph-name="countdown" unicode="&#59144;" d="M580.26666667 782.22222222l-136.53333334 0c-18.8416 0-34.13333333 15.29173333-34.13333333 34.13333333s15.29173333 34.13333333 34.13333333 34.13333334l136.53333334 0c18.87573333 0 34.13333333-15.29173333 34.13333333-34.13333334S599.1424 782.22222222 580.26666667 782.22222222zM839.44106667 583.5320888900001l38.02453333 38.02453333c13.34613333 13.34613333 13.34613333 34.9184 0 48.26453333s-34.9184 13.34613333-48.26453333 0l-35.08906667-35.08906666C720.55466667 704.77368889 621.32906667 748.08888889 512 748.08888889 286.13973333 748.08888889 102.4 564.34915555 102.4 338.48888889c0-225.86026667 183.73973333-409.6 409.6-409.6 225.86026667 0 409.6 183.73973333 409.6 409.6C921.6 430.40995555 890.7776 515.09475555 839.44106667 583.5320888900001zM546.13333333-1.103644450000047L546.13333333 31.288888889999953c0 18.87573333-15.29173333 34.13333333-34.13333333 34.13333333s-34.13333333-15.2576-34.13333333-34.13333333l0-32.39253334C316.85973333 14.93902221999997 188.45013333 143.34862222000004 172.40746667 304.35555554999996L204.8 304.35555554999996c18.8416 0 34.13333333 15.2576 34.13333333 34.13333334s-15.29173333 34.13333333-34.13333333 34.13333333L172.40746667 372.62222222C188.45013333 533.62915555 316.85973333 662.03875555 477.86666667 678.08142222L477.86666667 645.68888889c0-18.8416 15.29173333-34.13333333 34.13333333-34.13333334s34.13333333 15.29173333 34.13333333 34.13333334L546.13333333 678.08142222c161.00693333-16.0768 289.41653333-144.45226667 305.4592-305.4592L819.2 372.62222222c-18.87573333 0-34.13333333-15.2576-34.13333333-34.13333333s15.2576-34.13333333 34.13333333-34.13333334l32.39253333 0C835.54986667 143.34862222000004 707.14026667 14.93902221999997 546.13333333-1.103644450000047zM661.33333333 501.68035555l-170.66666666-136.53333333c-14.7456-11.81013333-17.1008-33.28-5.3248-47.99146667C492.10026667 308.72462222 501.99893333 304.35555554999996 512 304.35555554999996c7.4752 0 15.01866667 2.42346667 21.2992 7.4752l170.66666667 136.53333334c14.71146667 11.776 17.1008 33.24586667 5.3248 47.95733333C697.5488 511.06702222 676.11306667 513.49048889 661.33333333 501.68035555z"  horiz-adv-x="1024" />

    
    <glyph glyph-name="female" unicode="&#59162;" d="M864 480c0 194.08-157.92 352-352 352S160 674.08 160 480c0-183.392 141.024-334.304 320.32-350.4C480.288 129.024 480 128.576 480 128l0-64-128 0c-17.664 0-32-14.304-32-32s14.336-32 32-32l128 0 0-32c0-17.696 14.336-32 32-32s32 14.304 32 32l0 32 128 0c17.696 0 32 14.304 32 32s-14.304 32-32 32l-128 0 0 64c0 0.576-0.288 1.024-0.32 1.6C722.976 145.696 864 296.608 864 480zM512 192c-158.784 0-288 129.184-288 288 0 158.784 129.216 288 288 288 158.816 0 288-129.216 288-288C800 321.184 670.816 192 512 192z"  horiz-adv-x="1024" />

    
    <glyph glyph-name="male" unicode="&#59164;" d="M926.56 775.2c-0.224 1.344-0.32 2.72-0.8 4.032 0 0 0 0-0.032 0.032-0.8 2.176-2.112 3.968-3.36 5.888-0.032 0.064-0.064 0.096-0.096 0.16-0.832 1.28-1.216 2.688-2.24 3.872-0.224 0.256-0.544 0.352-0.768 0.608-1.6 1.728-3.584 2.88-5.568 4.224 0 0.032-0.032 0.032-0.064 0.064-1.504 1.024-2.848 2.272-4.48 3.008 0 0 0 0-0.032 0C905.088 798.88 900.672 800 896 800l-224 0c-17.696 0-32-14.336-32-32s14.304-32 32-32l139.328 0-152.704-134.656C599.808 645.504 527.04 672 448 672 253.92 672 96 514.0799999999999 96 320s157.92-352 352-352 352 157.92 352 352c0 91.904-35.68 175.424-93.6 238.176L864 697.12 864 576c0-17.664 14.304-32 32-32s32 14.336 32 32L928 768C928 770.56 927.136 772.8 926.56 775.2zM736 320c0-158.816-129.184-288-288-288-158.784 0-288 129.184-288 288 0 158.784 129.216 288 288 288C606.816 608 736 478.784 736 320z"  horiz-adv-x="1024" />

    
    <glyph glyph-name="sound" unicode="&#58939;" d="M844.8-80.928c-2.048 0-3.072 0-5.12 0l-16.384 7.168c0 0 0 0 0 1.024-5.12 1.024-8.192 3.072-10.24 6.144-1.024 3.072-1.024 7.168 1.024 12.288 1.024 1.024 22.528 40.96 44.032 103.424 20.48 59.392 45.056 150.528 45.056 249.856 0 100.352-24.576 190.464-45.056 248.832-21.504 62.464-43.008 102.4-44.032 104.448-4.096 11.264-2.048 15.36 8.192 21.504l17.408 8.192c2.048 1.024 5.12 2.048 7.168 2.048 7.168 0 12.288-5.12 17.408-16.384 1.024-2.048 2.048-4.096 4.096-8.192 10.24-19.456 32.768-64.512 53.248-128 25.6-79.872 37.888-159.744 37.888-237.568 0-96.256-24.576-186.368-45.056-245.76-22.528-64.512-45.056-106.496-46.08-106.496l-1.024-2.048c-5.12-11.264-9.216-20.48-22.528-20.48 0 0 0 0 0 0zM257.024 173.024c0 0-1.024 0-1.024 0l-190.464 0 0 253.952 190.464 0c0 0 1.024 0 1.024 0l253.952 177.152 0-609.28-253.952 178.176zM742.4 46.048c-2.048 0-4.096 0-6.144 0l-16.384 8.192c0 0 0 0 0 0-5.12 1.024-8.192 3.072-9.216 6.144-2.048 3.072-2.048 7.168 0 12.288 1.024 1.024 16.384 26.624 30.72 65.536 14.336 37.888 30.72 96.256 30.72 160.768 0 66.56-16.384 123.904-30.72 160.768-14.336 38.912-29.696 63.488-30.72 64.512-4.096 11.264-2.048 15.36 9.216 21.504l15.36 8.192c3.072 1.024 5.12 2.048 8.192 2.048 6.144 0 12.288-5.12 17.408-16.384 1.024-3.072 3.072-6.144 5.12-11.264 17.408-31.744 62.464-117.76 62.464-234.496 0-64.512-16.384-122.88-30.72-159.744-16.384-39.936-31.744-65.536-31.744-65.536s0 0 0 0l-1.024-2.048c-6.144-11.264-10.24-20.48-22.528-20.48 0 0 0 0 0 0zM656.384 176.096c-2.048 0-4.096 0-6.144 0l-15.36 7.168c0 1.024 0 1.024 0 1.024-5.12 1.024-8.192 3.072-9.216 6.144-2.048 3.072-2.048 7.168 0 12.288 0 0 20.48 44.032 20.48 96.256 0 54.272-20.48 93.184-21.504 95.232-4.096 11.264-2.048 16.384 9.216 21.504l15.36 8.192c3.072 1.024 5.12 2.048 8.192 2.048 6.144 0 12.288-5.12 17.408-16.384 1.024-3.072 3.072-6.144 4.096-9.216 10.24-19.456 23.552-46.08 23.552-106.496 0-33.792-21.504-93.184-22.528-95.232l-1.024-2.048c-6.144-11.264-10.24-20.48-22.528-20.48 0 0 0 0 0 0z"  horiz-adv-x="1024" />

    
    <glyph glyph-name="mail-open-o" unicode="&#58915;" d="M959.303448 522.577799L511.9166 803.621964l-447.220048-281.044165 0-446.429032c0-61.726915 50.071446-111.771755 111.82599-111.771755l670.953892 0c61.755567 0 111.82599 50.043816 111.82599 111.771755L959.302424 520.476949l-1.58408 0L959.303448 522.577799zM511.9166 251.01866800000005l-352.375842 265.394728 352.375842 221.375121 352.361515-221.261534L511.9166 251.01866800000005zM903.389941 76.14876700000002c0-30.822013-25.091493-55.886901-55.913507-55.886901l-670.953892 0c-30.822013 0-55.913507 25.064887-55.913507 55.886901L120.609036 475.724654l391.307565-294.679734 391.473341 294.926351L903.389941 76.14876700000002z"  horiz-adv-x="1024" />

    
    <glyph glyph-name="crownfill" unicode="&#59254;" d="M960.14 585.26c0 57.69-46.92 104.61-104.64 104.61s-104.64-46.92-104.64-104.61c0-49.41 34.5-90.69 80.64-101.61-41.46-82.65-96.24-159.48-125.58-159.48-28.56 0-86.13 83.31-144.36 242.94 41.88 18.42 70.41 59.97 70.41 107.94 0 65.28-53.13 118.38-118.41 118.38-65.31 0-118.44-53.13-118.44-118.38 0-48.09 28.65-89.7 70.65-108.03-61.98-171.72-115.92-234.99-138.06-234.99-41.13 0-98.25 79.98-135.42 151.65 46.17 10.89 80.73 52.2 80.73 101.64 0 57.69-46.95 104.61-104.64 104.61S63.74 642.95 63.74 585.26c0-39.54 22.32-73.62 54.78-91.41l20.73-417.66c0.48-9.72 5.64-18.6 13.86-23.82 4.35-2.79 109.41-67.65 360.45-67.65 251.04 0 356.1 65.1 360.45 67.86 8.25 5.28 13.41 14.22 13.86 24l18.48 417.81C938.27 512.27 960.14 546.0799999999999 960.14 585.26z"  horiz-adv-x="1024" />

    
    <glyph glyph-name="crown" unicode="&#59255;" d="M961.28 583.76c0 57.69-46.92 104.61-104.64 104.61s-104.64-46.92-104.64-104.61c0-49.41 34.5-90.69 80.64-101.61-41.46-82.65-96.24-159.48-125.58-159.48-28.56 0-86.13 83.31-144.36 242.94 41.88 18.42 70.41 59.97 70.41 107.94 0 65.28-53.13 118.38-118.41 118.38-65.31 0-118.44-53.13-118.44-118.38 0-48.09 28.65-89.7 70.65-108.03-61.98-171.72-115.92-234.99-138.06-234.99-41.13 0-98.25 79.98-135.42 151.65 46.17 10.89 80.73 52.2 80.73 101.64 0 57.69-46.95 104.61-104.64 104.61s-104.64-46.92-104.64-104.61c0-39.54 22.32-73.62 54.78-91.41l20.73-417.66c0.48-9.72 5.64-18.6 13.86-23.82 4.35-2.79 109.41-67.65 360.45-67.65 251.04 0 356.1 65.1 360.45 67.86 8.25 5.28 13.41 14.22 13.86 24l18.48 417.81C939.38 510.8 961.28 544.61 961.28 583.76zM811.97 583.76c0 24.6 20.04 44.61 44.64 44.61s44.64-20.01 44.64-44.61c0-24.63-20.04-44.64-44.64-44.64S811.97 559.13 811.97 583.76zM456.23 673.52c0 32.19 26.22 58.38 58.44 58.38s58.41-26.19 58.41-58.38c0-29.85-22.56-54.63-52.5-57.69-1.98-0.18-3.96-0.6-5.85-1.2-1.89 0.6-3.87 0.99-5.91 1.2C478.85 618.8299999999999 456.23 643.64 456.23 673.52zM169.49 628.37c24.63 0 44.64-20.01 44.64-44.61 0-24.63-20.01-44.64-44.64-44.64s-44.64 20.01-44.64 44.64C124.85 608.36 144.86 628.37 169.49 628.37zM829.79 95.02999999999997c-33.45-15.39-132.03-51.84-315.12-51.84-183.36 0-282 36.42-315.24 51.69L185.36 377.9c37.65-54.78 88.2-107.4 143.43-107.4 60.81 0 123.3 84.54 186 251.49 65.07-172.11 129.63-259.32 192.24-259.32 49.44 0 97.83 55.26 135.18 113.73L829.79 95.02999999999997z"  horiz-adv-x="1024" />

    
    <glyph glyph-name="mail" unicode="&#58961;" d="M540.48424 295.21283800000003c-11.686157-11.564383-30.627555-11.564383-42.313711 0l-76.393901 75.859735L63.269487 94.39104299999997l0-29.677926c0-16.408715 13.389962-29.726022 29.945009-29.726022l837.569984 0c16.556071 0 29.945009 13.317307 29.945009 29.726022l0 29.677926L610.304422 364.597091 540.48424 295.21283800000003zM540.48424 337.257419l399.161049 394.269645c-2.823302 0.87595-5.743818 1.484817-8.860808 1.484817L99.349217 733.011882l398.821311-395.754462C509.856685 325.644941 528.798083 325.644941 540.48424 337.257419zM69.258898 720.936869c-3.700275-4.942569-5.989411-11.028171-5.989411-17.649985l0-566.220902 337.180416 255.186983L69.258898 720.936869zM959.998849 709.7142699999999c0 0-140.714835-137.623427-328.172251-323.791477 140.423193-108.21463 328.902892-248.418836 328.902892-248.418836L960.729489 703.286883C960.729489 705.526901 960.484919 707.645145 959.998849 709.7142699999999zM631.826598 385.922792l-0.194428-0.145309C631.729383 385.826602 631.826598 385.922792 631.826598 385.922792z"  horiz-adv-x="1024" />

    
    <glyph glyph-name="sdfsdf" unicode="&#58881;" d="M444.67578125 247.59375c0-37.6171875-30.49804688-68.203125-68.203125-68.203125l0 0c-37.6171875 0-68.203125 30.49804688-68.203125 68.203125l0 0c0 37.6171875 30.49804688 68.203125 68.203125 68.203125l0 0C414.17773437 315.796875 444.67578125 285.29882812000005 444.67578125 247.59375L444.67578125 247.59375zM717.40039063 218.67773437000005c-15.99609375 0-29.00390625 13.0078125-29.00390626 29.00390626 0 83.3203125-32.43164063 161.63085938-91.40624999 220.60546874s-137.28515625 91.40625-220.60546876 91.40625001c-15.99609375 0-29.00390625 13.0078125-29.00390624 29.00390625s13.0078125 29.00390625 29.00390625 29.00390625c49.921875 0 98.34960938-9.75585938 143.96484374-29.09179688 44.03320313-18.6328125 83.58398438-45.26367188 117.59765626-79.27734375 33.92578125-33.92578125 60.64453125-73.4765625 79.27734375-117.59765625 19.3359375-45.61523438 29.09179688-94.04296875 29.09179687-143.96484375C746.40429688 231.59765625 733.39648438 218.67773437000005 717.40039063 218.67773437000005zM581.08203125 218.67773437000005c-15.99609375 0-29.00390625 13.0078125-29.00390625 29.00390626 0 96.76757813-78.75 175.60546875-175.60546875 175.60546874-15.99609375 0-29.00390625 13.0078125-29.00390625 29.00390626 0 15.99609375 13.0078125 29.00390625 29.00390625 29.00390625 62.40234375 0 121.02539063-24.2578125 165.14648438-68.37890626 44.12109375-44.12109375 68.37890625-102.74414063 68.37890624-165.14648437C610.0859375 231.59765625 597.078125 218.67773437000005 581.08203125 218.67773437000005zM512.87890625-54.046875c-59.15039063 0-116.54296875 11.6015625-170.5078125 34.453125-52.20703125 22.06054688-99.05273438 53.61328125-139.21875 93.8671875C162.8984375 114.43945312000005 131.2578125 161.28515625 109.19726562 213.4921875c-22.8515625 54.05273438-34.453125 111.4453125-34.45312499 170.5078125s11.6015625 116.54296875 34.453125 170.5078125c22.06054688 52.20703125 53.61328125 99.05273438 93.86718749 139.21875S290.1640625 765.62109375 342.37109375 787.68164063c54.05273438 22.8515625 111.4453125 34.453125 170.5078125 34.45312499s116.54296875-11.6015625 170.5078125-34.453125c52.20703125-22.06054688 99.05273438-53.61328125 139.21875-93.86718749 40.25390625-40.25390625 71.80664063-87.09960938 93.8671875-139.21875001 22.8515625-54.05273438 34.453125-111.4453125 34.453125-170.50781249s-11.6015625-116.54296875-34.453125-170.50781251c-22.06054688-52.20703125-53.61328125-99.05273438-93.8671875-139.21874999-40.25390625-40.25390625-87.09960938-71.80664063-139.21875-93.86718751C629.421875-42.53320312999995 572.02929688-54.046875 512.87890625-54.046875zM512.87890625 764.12695313c-51.328125 0-101.07421875-10.01953125-147.91992188-29.88281251-45.26367188-19.16015625-85.95703125-46.58203125-120.84960937-81.47460937s-62.31445313-75.5859375-81.47460938-120.84960938c-19.77539063-46.84570313-29.8828125-96.59179688-29.88281249-147.91992187s10.01953125-101.07421875 29.8828125-147.91992188c19.16015625-45.26367188 46.58203125-85.95703125 81.47460937-120.84960937s75.5859375-62.31445313 120.84960938-81.47460938c46.84570313-19.77539063 96.59179688-29.8828125 147.91992187-29.88281249 51.328125 0 101.07421875 10.01953125 147.91992188 29.8828125 45.26367188 19.16015625 85.95703125 46.58203125 120.84960937 81.47460937 34.89257813 34.89257813 62.31445313 75.5859375 81.47460938 120.84960938 19.77539063 46.84570313 29.8828125 96.59179688 29.88281249 147.91992187s-10.01953125 101.07421875-29.8828125 147.91992188c-19.16015625 45.26367188-46.58203125 85.95703125-81.47460937 120.84960937-34.89257813 34.89257813-75.5859375 62.31445313-120.84960938 81.47460938C613.953125 754.10742188 564.20703125 764.12695313 512.87890625 764.12695313z"  horiz-adv-x="1024" />

    
    <glyph glyph-name="pocket" unicode="&#59916;" d="M938.666667 384C938.666667 148.48 747.52-42.666667 512-42.666667 276.48-42.666667 85.333333 148.48 85.333333 384L85.333333 704C85.333333 762.88 133.12 810.666667 192 810.666667L832 810.666667C890.88 810.666667 938.666667 762.88 938.666667 704L938.666667 384M677.546667 544 512 378.453333 346.453333 544.426667C321.28 569.6 280.746667 569.6 256 544.426667 230.826667 519.68 230.826667 479.146667 256 453.973333L466.346667 242.346667C490.666667 217.6 532.053333 217.6 557.226667 242.346667L768 453.546667C793.173333 478.72 793.173333 519.253333 768 544 743.253333 569.173333 702.72 569.173333 677.546667 544Z"  horiz-adv-x="1024" />

    
    <glyph glyph-name="formfill" unicode="&#59307;" d="M819.2 827.73333333L204.8 827.73333333C148.34346667 827.73333333 102.4 781.78986667 102.4 725.33333333l0-682.66666666c0-56.45653333 45.94346667-102.4 102.4-102.4l614.4 0c56.45653333 0 102.4 45.94346667 102.4 102.4L921.6 725.33333333C921.6 781.78986667 875.65653333 827.73333333 819.2 827.73333333zM683.7248 383.0784c0-18.8416-15.2576-34.13333333-34.13333333-34.13333333L272.82773333 348.94506666999996c-18.8416 0-34.13333333 15.29173333-34.13333333 34.13333333s15.29173333 34.13333333 34.13333333 34.13333333l376.76373334 0C668.4672 417.21173333 683.7248 401.92 683.7248 383.0784zM511.04426667 657.06666667c28.29653333 0 51.2-22.9376 51.2-51.2 0-28.29653333-22.90346667-51.23413333-51.2-51.23413334s-51.2 22.9376-51.2 51.23413334C459.84426667 634.1290666699999 482.74773333 657.06666667 511.04426667 657.06666667zM289.82613333 657.06666667c28.29653333 0 51.2-22.9376 51.2-51.2 0-28.29653333-22.90346667-51.23413333-51.2-51.23413334s-51.2 22.9376-51.2 51.23413334C238.62613333 634.1290666699999 261.5296 657.06666667 289.82613333 657.06666667zM749.73866667 145.57866666999996L272.6912 145.57866666999996c-18.8416 0-34.13333333 15.2576-34.13333333 34.13333333s15.29173333 34.13333333 34.13333333 34.13333333l477.04746667 0c18.87573333 0 34.13333333-15.2576 34.13333333-34.13333333S768.6144 145.57866666999996 749.73866667 145.57866666999996zM733.04746667 554.63253333c-28.29653333 0-51.2 22.9376-51.2 51.23413334 0 28.2624 22.90346667 51.2 51.2 51.2s51.2-22.9376 51.2-51.2C784.24746667 577.57013333 761.344 554.63253333 733.04746667 554.63253333z"  horiz-adv-x="1024" />

    
    <glyph glyph-name="shouye" unicode="&#58929;" d="M236.539274 418.147728c17.253966 0 31.233352 13.980409 31.233352 31.233352 0 110.680798 64.816215 197.723224 173.372629 232.82058 14.792914 4.77884 23.811312 19.713994 21.168112 35.026748-0.426719 2.480494-0.64059 4.900613-0.64059 7.197936 0 24.614607 22.683628 44.63457 50.561559 44.63457 27.858488 0 50.53086-20.018939 50.53086-44.63457 0-2.379187-0.203638-4.727675-0.599657-7.005554-2.745531-15.535835 6.537903-30.674627 21.615297-35.290761 110.202914-33.714869 173.402305-118.550023 173.402305-232.748948 0-17.253966 13.980409-31.233352 31.234375-31.233352s31.233352 13.980409 31.233352 31.233352c0 133.414569-72.349795 238.259452-194.876386 284.724717-5.174859 54.537104-53.673433 97.422843-112.541169 97.422843-59.062164 0-107.691721-43.149752-112.623034-97.921193-120.482025-47.999201-194.306404-154.959258-194.306404-284.226367C205.305923 432.128137 219.285309 418.147728 236.539274 418.147728zM819.911812 293.690158l0 55.889915c0 17.253966-13.980409 31.233352-31.233352 31.233352s-31.234375-13.980409-31.234375-31.233352l0-67.988464c0-7.80885 2.928702-15.34243 8.204869-21.097504 40.10951-43.780109 86.381369-99.497085 95.105055-116.89329-0.315178-10.827603-3.345188-13.552667-32.586163-13.552667L196.820668 130.048147c-26.983561 0-31.671327 7.259334-32.484855 13.735839 9.17087 17.701151 55.381331 73.072249 95.449909 116.669186 5.306866 5.765307 8.245801 13.30912 8.245801 21.137413l0 67.988464c0 17.253966-13.980409 31.233352-31.233352 31.233352s-31.233352-13.980409-31.233352-31.233352l0-55.848982C101.69617 179.684638 101.69617 158.170648 101.69617 147.699156c0-38.727023 24.991184-80.117712 95.124498-80.117712l631.347179 0c23.5166 0 95.094822 0 95.094822 80.117712C923.262668 158.211581 923.262668 179.797201 819.911812 293.690158zM400.99993 529.998165c-17.253966 0-31.233352-13.980409-31.233352-31.234375l0-30.470989c0-17.253966 13.980409-31.234375 31.233352-31.234375s31.234375 13.980409 31.234375 31.234375l0 30.470989C432.234305 516.017756 418.253896 529.998165 400.99993 529.998165zM623.957885 529.998165c-17.253966 0-31.234375-13.980409-31.234375-31.234375l0-30.470989c0-17.253966 13.980409-31.234375 31.234375-31.234375 17.253966 0 31.233352 13.980409 31.233352 31.234375l0 30.470989C655.19226 516.017756 641.21185 529.998165 623.957885 529.998165zM512.170892 297.564395c43.963281 0 75.105558 30.318516 86.574774 48.223305 9.222035 14.396895 5.03262 33.358759-9.242502 42.763966-14.305821 9.405207-33.593096 5.38873-43.159986-8.764618-0.132006-0.193405-13.614066-19.754926-34.172287-19.754926-19.989263 0-32.43369 18.117636-33.267685 19.378349-9.181103 14.407128-28.285207 18.809391-42.834574 9.750061-14.650675-9.099239-19.155269-28.356838-10.044774-43.007513C437.238272 328.107015 467.99374 297.564395 512.170892 297.564395zM601.661066 39.000502c-15.179724 8.225335-34.131355 2.593058-42.346457-12.576433-9.292644-17.142425-27.248597-27.79709-46.871517-27.79709-19.530822 0-37.476543 10.67513-46.830585 27.848255-8.256034 15.149025-27.217898 20.741393-42.366923 12.495592-15.149025-8.256034-20.741393-27.217898-12.495592-42.366923 20.304442-37.283138 59.275012-60.444651 101.6931-60.444651 42.560328 0 81.561597 23.180955 101.794407 60.494793C622.453624 11.823536 616.821347 30.775166 601.661066 39.000502z"  horiz-adv-x="1024" />

    
    <glyph glyph-name="icon" unicode="&#58962;" d="M939.358251 472.575338c-23.01825 37.252439-62.924121 60.779272-107.019409 63.209624-2.755764 0.38681-5.510504 0.579191-8.347109 0.579191l-152.202471 0.121773c6.649444 28.975938 10.015098 58.653865 10.015098 88.657202 0 28.223808-3.213181 57.139372-9.556657 85.952604-0.447185 2.043542-1.098008 4.006244-1.932002 5.866614-15.820314 57.302077-67.37755 96.841605-127.282918 96.841605-72.827679 0-132.081201-59.254545-132.081201-132.081201 0-3.334955 0.132006-6.66991 0.406253-10.015098-2.196015-57.211003-32.108279-109.947088-80.269162-141.363611-14.447037-9.42465-18.524912-28.773324-9.099239-43.220361 9.414417-14.437827 28.752858-18.535145 43.220361-9.099239 65.811892 42.925648 106.429984 115.325585 108.656699 193.684234 0.030699 1.332345-0.010233 2.663666-0.14224 3.996011-0.203638 2.012843-0.304945 4.016477-0.304945 6.019087 0 38.381146 31.233352 69.614497 69.614497 69.614497 32.57593 0 60.474326-22.204721 67.824735-53.997821 0.356111-1.534959 0.823761-3.019777 1.402953-4.453429 4.696975-22.814612 7.076162-45.579081 7.076162-67.743894 0-37.485753-6.222725-74.352405-18.494213-109.592001-3.324722-9.546424-1.819438-20.111037 4.02671-28.345582 5.856381-8.245801 15.332197-13.146415 25.448602-13.156648l193.226816-0.101307c1.423419-0.264013 2.857071-0.426719 4.300956-0.477884 24.116257-0.9967 45.935192-13.614066 58.603723-34.090423 7.838525-12.31242 11.438517-26.800389 10.431583-41.939181-0.080841-0.945535-0.121773-1.911536-0.11154-2.877537 0-0.854461 0.040932-1.697665 0.11154-2.53166 0.010233-0.335644-0.030699-0.661056-0.11154-0.976234-0.101307-0.376577-0.193405-0.772596-0.284479-1.159406l-74.972529-330.391802c-0.914836-1.281179-1.738597-2.6432-2.449795-4.046153-5.937223-11.762905-14.660908-21.48329-25.346271-28.172643-10.746762-6.812149-23.059182-10.614755-35.757388-11.06194-0.854461 0.061398-513.766226 0.224104-513.766226 0.224104-0.467651 0.020466-0.935302 0.030699-1.402953 0.030699 0 0-111.01542-0.172939-112.718201-0.457418-1.932002 0-3.446495 1.50426-3.446495 3.415796l0.299829 416.334173c0 1.901303 1.545192 3.446495 3.01466 3.456728l1.245364-0.121773c1.174756-0.132006 2.653433-0.284479 3.52836-0.193405l83.82822 0.222057 0-339.367221c0-17.253966 13.979386-31.233352 31.233352-31.233352s31.233352 13.979386 31.233352 31.233352L281.009092 460.649727c0 1.778506 0 8.631588 0 10.411117 0 17.253966-13.979386 30.928407-31.233352 30.928407-1.50426 0-117.547183-0.304945-119.402437-0.304945-36.34272 0-65.913199-29.566386-65.913199-65.893756l-0.299829-416.334173c0-36.337603 29.571503-65.902966 65.913199-65.902966 2.541893 0 111.406323 0.457418 111.406323 0.457418 0.457418-0.020466 0.925069-0.030699 1.382487-0.030699 0 0 511.458671-0.274246 512.505513-0.274246 25.469068 0 50.296523 7.197936 71.647807 20.73116 19.612687 12.281721 35.777855 29.881564 46.839795 50.967812 3.660366 5.622044 6.435573 11.875468 8.256034 18.615986 0.11154 0.416486 0.213871 0.823761 0.304945 1.240247l74.881454 330.340637c1.596358 6.212492 2.257413 12.586666 2.00261 18.992563C960.892707 422.633902 953.948551 449.668629 939.358251 472.575338zM450.027553 377.349533c-17.253966 0-31.233352-13.979386-31.233352-31.233352l0-30.470989c0-17.253966 13.979386-31.233352 31.233352-31.233352 17.253966 0 31.233352 13.979386 31.233352 31.233352l0 30.470989C481.260905 363.370147 467.281519 377.349533 450.027553 377.349533zM693.805696 377.349533c-17.253966 0-31.233352-13.979386-31.233352-31.233352l0-30.470989c0-17.253966 13.979386-31.233352 31.233352-31.233352 17.253966 0 31.233352 13.979386 31.233352 31.233352l0 30.470989C725.039048 363.370147 711.058638 377.349533 693.805696 377.349533zM648.940882 235.90508c-14.304797 9.393951-33.592073 5.398964-43.159986-8.763594-0.132006-0.193405-13.614066-19.754926-34.171264-19.754926-19.98824 0-32.423457 18.09717-33.266661 19.368116-9.17087 14.427594-28.254507 18.809391-42.834574 9.770528-14.650675-9.109472-19.155269-28.366048-10.055007-43.016723 11.214413-18.047028 41.96988-48.588625 86.156242-48.588625 43.962258 0 75.104535 30.318516 86.572728 48.222281C667.404396 207.538009 663.216004 226.499873 648.940882 235.90508z"  horiz-adv-x="1024" />

    
    <glyph glyph-name="mail-open" unicode="&#59229;" d="M114.401028-56.76151600000003l293.50673 293.498544 104.08866-71.565942 104.095823 71.565942 293.498544-293.498544C905.00842-57.80631100000005 118.989533-57.80631100000005 114.401028-56.76151600000003L114.401028-56.76151600000003 114.401028-56.76151600000003zM114.401028-56.76151600000003M64.709279 5.426848999999947c0-6.471388 1.246387-12.590759 3.035126-18.48091l286.61374 286.602484L64.709279 504.637568 64.709279 5.426848999999947 64.709279 5.426848999999947 64.709279 5.426848999999947zM64.709279 5.426848999999947M511.996418 240.051517l-447.287139 340.465229L511.376295 825.545368l447.912379-245.028623L511.996418 240.051517zM511.996418 240.051517M959.288674 504.637568L669.640832 273.54842199999996l286.608623-286.602484c1.787716 5.89015 3.040243 12.008498 3.040243 18.48091L959.289698 504.637568 959.288674 504.637568 959.288674 504.637568zM959.288674 504.637568"  horiz-adv-x="1024" />

    
    <glyph glyph-name="caret-right" unicode="&#60981;" d="M392.7 819.7l489.1-403.1c18.9-16.9 18.9-46.5 0-63.4L392.7-51.700000000000045c-27.4-24.4-70.8-5-70.8 31.7L321.9 788.1C322 824.7 365.3 844.2 392.7 819.7z"  horiz-adv-x="1024" />

    
    <glyph glyph-name="caretleft" unicode="&#60982;" d="M631.3 819.7 142.1 416.7c-18.9-16.9-18.9-46.5 0-63.4l489.1-405.1c27.4-24.4 70.8-5 70.8 31.7L702 788.1C702 824.7 658.6 844.2 631.3 819.7z"  horiz-adv-x="1024" />

    
    <glyph glyph-name="caret-down" unicode="&#60983;" d="M76.3 503.7l403.1-489.1c16.9-18.9 46.5-18.9 63.4 0l405.1 489.1c24.4 27.4 5 70.8-31.7 70.8l-808.1 0C71.3 574.5 51.8 531.1 76.3 503.7z"  horiz-adv-x="1024" />

    
    <glyph glyph-name="caret-up" unicode="&#60984;" d="M76.3 263.20000000000005l405.1 489.1c16.9 18.9 46.5 18.9 63.4 0l403.1-489.1c24.4-27.4 5-70.8-31.7-70.8L107.9 192.39999999999998C71.3 192.39999999999998 51.8 235.79999999999995 76.3 263.20000000000005z"  horiz-adv-x="1024" />

    
    <glyph glyph-name="right-circle" unicode="&#60985;" d="M512 833.12195156C263.6878045 833.12195156 62.43902422 631.8731704100001 62.43902422 383.56097578000004s201.24878028-449.56097578 449.56097578-449.56097578 449.56097578 201.24878028 449.56097578 449.56097578S760.3121955 833.12195156 512 833.12195156zM660.82926817 361.43414619l-207.04390225-194.04878027c-12.73170762-11.94146367-32.75121973-11.32682959-44.69268253 1.40487802-11.94146367 12.73170762-11.32682959 32.75121973 1.40487804 44.69268252L592.95609776 384.43902422 410.58536592 555.48292646c-12.73170762 11.94146367-13.3463417 31.96097578-1.40487803 44.69268252 11.94146367 12.73170762 31.96097578 13.3463417 44.69268252 1.40487803l207.04390225-194.04878027c6.32195156-5.88292646 9.92195156-14.22439013 9.92195156-23.00487802S667.23902422 367.31707354 660.82926817 361.43414619z"  horiz-adv-x="1024" />

    
    <glyph glyph-name="left-circle" unicode="&#60986;" d="M512 833.12195156C263.68780449 833.12195156 62.43902422 631.8731704100001 62.43902422 383.56097578000004s201.24878028-449.56097578 449.56097578-449.56097578 449.56097578 201.24878028 449.56097578 449.56097578S760.31219551 833.12195156 512 833.12195156zM614.81951211 168.70243945000004c-11.94146367-12.73170762-31.96097578-13.3463417-44.69268252-1.40487802l-207.04390225 194.04878027C356.67317041 367.31707354 353.07317041 375.65853632999995 353.07317041 384.43902422s3.6 17.12195156 9.92195157 23.00487802l207.04390224 194.04878028c12.73170762 11.94146367 32.75121973 11.32682959 44.69268252-1.40487803 11.94146367-12.73170762 11.32682959-32.75121973-1.40487803-44.69268252L430.95609776 384.43902422l182.45853632-171.04390224C626.1463417 201.45365830000003 626.76097578 181.43414618999998 614.81951211 168.70243945000004z"  horiz-adv-x="1024" />

    
    <glyph glyph-name="up-circle" unicode="&#60987;" d="M512 833.12195156C263.6878045 833.12195156 62.43902422 631.8731704100001 62.43902422 383.56097578000004s201.24878028-449.56097578 449.56097578-449.56097578 449.56097578 201.24878028 449.56097578 449.56097578S760.3121955 833.12195156 512 833.12195156zM727.64878028 291.27804844c-12.73170762-11.94146367-32.75121973-11.32682959-44.69268252 1.40487802L512 475.0536583 340.95609776 292.59512197000004c-11.94146367-12.73170762-31.96097578-13.3463417-44.69268253-1.40487803-12.73170762 11.94146367-13.3463417 31.96097578-1.40487802 44.69268252l194.04878027 207.04390226c5.97073183 6.40975605 14.31219551 10.00975605 23.09268252 10.00975605s17.12195156-3.6 23.00487802-9.92195157l194.04878028-207.04390224C740.99512197 323.23902422000003 740.38048789 303.21951211 727.64878028 291.27804844z"  horiz-adv-x="1024" />

    
    <glyph glyph-name="down-circle" unicode="&#60988;" d="M512 833.12195156C263.6878045 833.12195156 62.43902422 631.8731704100001 62.43902422 383.56097578000004s201.24878028-449.56097578 449.56097578-449.56097578 449.56097578 201.24878028 449.56097578 449.56097578S760.3121955 833.12195156 512 833.12195156zM729.0536583 424.12682959l-194.04878027-207.04390225c-5.88292646-6.32195156-14.22439013-9.92195156-23.00487803-9.92195156s-17.12195156 3.6-23.09268252 10.00975605l-194.04878027 207.04390225c-11.94146367 12.73170762-11.32682959 32.75121973 1.40487802 44.69268253 12.73170762 11.94146367 32.75121973 11.32682959 44.69268253-1.40487804L512 285.04390223999997l170.95609776 182.37073184c11.94146367 12.73170762 31.96097578 13.3463417 44.69268252 1.40487803C740.38048789 456.87804844 740.99512197 436.85853633 729.0536583 424.12682959z"  horiz-adv-x="1024" />

    
    <glyph glyph-name="right-circle-o" unicode="&#60989;" d="M512 769.90243945c52.15609776 0 102.73170761-10.18536592 150.32195156-30.29268252 46.00975605-19.49268252 87.27804844-47.32682959 122.83902422-82.8 35.47317041-35.47317041 63.39512198-76.82926817 82.8-122.83902422C888.15609776 486.29268252 898.34146367 435.71707354 898.34146367 383.56097578000004s-10.18536592-102.73170761-30.29268252-150.32195156c-19.49268252-46.00975605-47.32682959-87.27804844-82.8-122.83902422-35.47317041-35.47317041-76.82926817-63.39512198-122.83902422-82.8C614.73170761 7.4048780299999635 564.15609776-2.7804878900000176 512-2.7804878900000176s-102.73170761 10.18536592-150.32195156 30.29268252c-46.00975605 19.49268252-87.27804844 47.32682959-122.83902422 82.8-35.47317041 35.47317041-63.39512198 76.82926817-82.8 122.83902422C135.84390224 280.82926815999997 125.65853633 331.40487801999996 125.65853633 383.56097578000004s10.18536592 102.73170761 30.29268252 150.32195156c19.49268252 46.00975605 47.32682959 87.27804844 82.8 122.83902422 35.47317041 35.47317041 76.82926817 63.39512198 122.83902422 82.8C409.26829239 759.71707354 459.84390224 769.90243945 512 769.90243945M512 833.12195156C263.6878045 833.12195156 62.43902422 631.8731704100001 62.43902422 383.56097578000004s201.24878028-449.56097578 449.56097578-449.56097578 449.56097578 201.24878028 449.56097578 449.56097578S760.3121955 833.12195156 512 833.12195156L512 833.12195156zM660.91707354 407.44390224l-207.04390226 194.04878028c-12.73170762 11.94146367-32.75121973 11.32682959-44.69268251-1.40487802-11.94146367-12.73170762-11.32682959-32.75121973 1.40487803-44.69268252L592.95609776 384.43902422 410.49756055 213.39512197c-12.73170762-11.94146367-13.3463417-31.96097578-1.40487803-44.69268252 11.94146367-12.73170762 31.96097578-13.3463417 44.69268252-1.40487802l207.04390225 194.04878027c6.40975605 5.97073183 10.00975605 14.31219551 10.00975605 23.09268252S667.23902422 401.56097578 660.91707354 407.44390224z"  horiz-adv-x="1024" />

    
    <glyph glyph-name="left-circle-o" unicode="&#60990;" d="M512 769.90243945c52.15609776 0 102.73170761-10.18536592 150.32195156-30.29268252 46.00975605-19.49268252 87.27804844-47.32682959 122.83902422-82.8 35.47317041-35.47317041 63.39512198-76.82926817 82.8-122.83902422C888.15609776 486.29268252 898.34146367 435.71707354 898.34146367 383.56097578000004s-10.18536592-102.73170761-30.29268252-150.32195156c-19.49268252-46.00975605-47.32682959-87.27804844-82.8-122.83902422-35.47317041-35.47317041-76.82926817-63.39512198-122.83902422-82.8C614.73170761 7.4048780299999635 564.15609776-2.7804878900000176 512-2.7804878900000176s-102.73170761 10.18536592-150.32195156 30.29268252c-46.00975605 19.49268252-87.27804844 47.32682959-122.83902422 82.8-35.47317041 35.47317041-63.39512198 76.82926817-82.8 122.83902422C135.84390224 280.82926815999997 125.65853633 331.40487801999996 125.65853633 383.56097578000004s10.18536592 102.73170761 30.29268252 150.32195156c19.49268252 46.00975605 47.32682959 87.27804844 82.8 122.83902422 35.47317041 35.47317041 76.82926817 63.39512198 122.83902422 82.8C409.26829239 759.71707354 459.84390224 769.90243945 512 769.90243945M512 833.12195156C263.6878045 833.12195156 62.43902422 631.8731704100001 62.43902422 383.56097578000004s201.24878028-449.56097578 449.56097578-449.56097578 449.56097578 201.24878028 449.56097578 449.56097578S760.3121955 833.12195156 512 833.12195156L512 833.12195156zM353.07317041 384.43902422c0-8.78048789 3.6-17.12195156 10.00975605-23.09268252l207.04390225-194.04878027c12.73170762-11.94146367 32.75121973-11.32682959 44.69268252 1.40487802 11.94146367 12.73170762 11.32682959 32.75121973-1.40487803 44.69268252L430.95609776 384.43902422l182.37073183 170.95609776c12.73170762 11.94146367 13.3463417 31.96097578 1.40487803 44.69268252-11.94146367 12.73170762-31.96097578 13.3463417-44.69268252 1.40487802l-207.04390225-194.04878028C356.67317041 401.56097578 353.07317041 393.21951211 353.07317041 384.43902422z"  horiz-adv-x="1024" />

    
    <glyph glyph-name="up-circle-o" unicode="&#60991;" d="M512 769.90243945c52.15609776 0 102.73170761-10.18536592 150.32195156-30.29268252 46.00975605-19.49268252 87.27804844-47.32682959 122.83902422-82.8 35.47317041-35.47317041 63.39512198-76.82926817 82.8-122.83902422C888.15609776 486.29268252 898.34146367 435.71707354 898.34146367 383.56097578000004s-10.18536592-102.73170761-30.29268252-150.32195156c-19.49268252-46.00975605-47.32682959-87.27804844-82.8-122.83902422-35.47317041-35.47317041-76.82926817-63.39512198-122.83902422-82.8C614.73170761 7.4048780299999635 564.15609776-2.7804878900000176 512-2.7804878900000176s-102.73170761 10.18536592-150.32195156 30.29268252c-46.00975605 19.49268252-87.27804844 47.32682959-122.83902422 82.8-35.47317041 35.47317041-63.39512198 76.82926817-82.8 122.83902422C135.84390224 280.82926815999997 125.65853633 331.40487801999996 125.65853633 383.56097578000004s10.18536592 102.73170761 30.29268252 150.32195156c19.49268252 46.00975605 47.32682959 87.27804844 82.8 122.83902422 35.47317041 35.47317041 76.82926817 63.39512198 122.83902422 82.8C409.26829239 759.71707354 459.84390224 769.90243945 512 769.90243945M512 833.12195156C263.6878045 833.12195156 62.43902422 631.8731704100001 62.43902422 383.56097578000004s201.24878028-449.56097578 449.56097578-449.56097578 449.56097578 201.24878028 449.56097578 449.56097578S760.3121955 833.12195156 512 833.12195156L512 833.12195156zM512 552.93658565c-8.78048789 0-17.12195156-3.6-23.09268252-10.00975606l-194.04878027-207.04390225c-11.94146367-12.73170762-11.32682959-32.75121973 1.40487802-44.69268252 12.73170762-11.94146367 32.75121973-11.32682959 44.69268253 1.40487803L512 475.0536583l170.95609776-182.37073184c11.94146367-12.73170762 31.96097578-13.3463417 44.69268252-1.40487802 12.73170762 11.94146367 13.3463417 31.96097578 1.40487802 44.69268252l-194.04878027 207.04390224C529.12195156 549.33658565 520.78048789 552.93658565 512 552.93658565z"  horiz-adv-x="1024" />

    
    <glyph glyph-name="down-circle-o" unicode="&#60992;" d="M512 769.90243945c52.15609776 0 102.73170761-10.18536592 150.32195156-30.29268252 46.00975605-19.49268252 87.27804844-47.32682959 122.83902422-82.8 35.47317041-35.47317041 63.39512198-76.82926817 82.8-122.83902422C888.15609776 486.29268252 898.34146367 435.71707354 898.34146367 383.56097578000004s-10.18536592-102.73170761-30.29268252-150.32195156c-19.49268252-46.00975605-47.32682959-87.27804844-82.8-122.83902422-35.47317041-35.47317041-76.82926817-63.39512198-122.83902422-82.8C614.73170761 7.4048780299999635 564.15609776-2.7804878900000176 512-2.7804878900000176s-102.73170761 10.18536592-150.32195156 30.29268252c-46.00975605 19.49268252-87.27804844 47.32682959-122.83902422 82.8-35.47317041 35.47317041-63.39512198 76.82926817-82.8 122.83902422C135.84390224 280.82926815999997 125.65853633 331.40487801999996 125.65853633 383.56097578000004s10.18536592 102.73170761 30.29268252 150.32195156c19.49268252 46.00975605 47.32682959 87.27804844 82.8 122.83902422 35.47317041 35.47317041 76.82926817 63.39512198 122.83902422 82.8C409.26829239 759.71707354 459.84390224 769.90243945 512 769.90243945M512 833.12195156C263.6878045 833.12195156 62.43902422 631.8731704100001 62.43902422 383.56097578000004s201.24878028-449.56097578 449.56097578-449.56097578 449.56097578 201.24878028 449.56097578 449.56097578S760.3121955 833.12195156 512 833.12195156L512 833.12195156zM512 207.16097577999994c-8.78048789 0-17.12195156 3.6-23.09268252 10.00975605l-194.04878027 207.04390225c-11.94146367 12.73170762-11.32682959 32.75121973 1.40487802 44.69268253 12.73170762 11.94146367 32.75121973 11.32682959 44.69268253-1.40487804L512 285.04390223999997l170.95609776 182.37073184c11.94146367 12.73170762 31.96097578 13.3463417 44.69268252 1.40487803 12.73170762-11.94146367 13.3463417-31.96097578 1.40487802-44.69268252l-194.04878027-207.04390225C529.12195156 210.76097577999997 520.78048789 207.16097577999994 512 207.16097577999994z"  horiz-adv-x="1024" />

    
    <glyph glyph-name="reload" unicode="&#60999;" d="M852.9 357.6c-20.9 0-37.8-16.9-37.8-37.8 0-81-31.5-157.1-88.8-214.3C669.1 48.2 593 16.7 512 16.7s-157.1 31.5-214.3 88.8c-57.3 57.3-88.8 133.4-88.8 214.3s31.5 157.1 88.8 214.3c57.3 57.3 133.4 88.8 214.3 88.8 0.3 0 0.6 0 0.9 0l-66.2-86.3c-12.7-16.6-9.6-40.3 7-52.9 6.9-5.3 14.9-7.8 22.9-7.8 11.3 0 22.6 5.1 30 14.8l118.7 154.9c12.7 16.6 9.6 40.3-7 52.9L461 819.1c-16.6 12.7-40.3 9.5-52.9-7-12.7-16.6-9.6-40.3 7-52.9l79.7-61.1c-45-2-88.7-11.8-130.1-29.4-45.1-19.1-85.6-46.4-120.3-81.1-34.8-34.8-62.1-75.3-81.1-120.3-19.8-46.7-29.8-96.3-29.8-147.4 0-51.1 10-100.7 29.8-147.4 19.1-45.1 46.4-85.6 81.1-120.3 34.8-34.8 75.3-62.1 120.3-81.1 46.7-19.8 96.3-29.8 147.4-29.8 51.1 0 100.7 10 147.4 29.8C704.5-10 745 17.3 779.7 52c34.8 34.8 62.1 75.3 81.1 120.3 19.8 46.7 29.8 96.3 29.8 147.4C890.7 340.6 873.7 357.6 852.9 357.6z"  horiz-adv-x="1024" />

    
    <glyph glyph-name="double-right" unicode="&#61000;" d="M431 16.600000000000023c-15.1 18.8-12.1 46.3 6.7 61.4l381.5 306.9-379.6 305c-18.8 15.1-21.8 42.6-6.7 61.4 15.1 18.8 42.6 21.8 61.4 6.7l422-339.1c10.3-8.2 16.3-20.8 16.3-34 0-13.3-6-25.8-16.3-34.1L492.5 9.899999999999977c-8.1-6.4-17.8-9.6-27.4-9.6C452.3 0.2999999999999545 439.7 5.899999999999977 431 16.600000000000023zM101 16.600000000000023c-15.1 18.8-12.1 46.3 6.7 61.4l381.5 306.9-379.6 305c-18.8 15.1-21.8 42.6-6.7 61.4 15.1 18.8 42.6 21.8 61.4 6.7l422-339.1c10.3-8.2 16.3-20.8 16.3-34 0-13.3-6-25.8-16.3-34.1L162.5 9.899999999999977c-8.1-6.4-17.8-9.6-27.4-9.6C122.3 0.2999999999999545 109.7 5.899999999999977 101 16.600000000000023z"  horiz-adv-x="1024" />

    
    <glyph glyph-name="double-left" unicode="&#61001;" d="M558.9 0.2999999999999545c-9.6 0-19.3 3.2-27.4 9.6L107.7 350.79999999999995c-10.3 8.3-16.3 20.8-16.3 34.1 0 13.2 6 25.8 16.3 34l422 339.1c18.8 15.1 46.3 12.1 61.4-6.7 15.1-18.8 12.1-46.3-6.7-61.4l-379.6-305L586.3 78c18.8-15.1 21.8-42.6 6.7-61.4C584.3 5.899999999999977 571.7 0.2999999999999545 558.9 0.2999999999999545zM888.9 0.2999999999999545c-9.6 0-19.3 3.2-27.4 9.6L437.7 350.79999999999995c-10.3 8.3-16.3 20.8-16.3 34.1 0 13.2 6 25.8 16.3 34l422 339.1c18.8 15.1 46.3 12.1 61.4-6.7 15.1-18.8 12.1-46.3-6.7-61.4l-379.6-305L916.3 78c18.8-15.1 21.8-42.6 6.7-61.4C914.3 5.899999999999977 901.7 0.2999999999999545 888.9 0.2999999999999545z"  horiz-adv-x="1024" />

    
    <glyph glyph-name="arrowdown" unicode="&#61002;" d="M558 724.8l0-573.7c0-0.1 0.2-0.2 0.2-0.1l208 216.4c16.8 17.5 44.7 18.1 62.2 1.2 17.5-16.8 18.1-44.7 1.2-62.2L546.5 11.8c-8.3-8.6-19.8-13.5-31.7-13.5-12 0-23.4 4.9-31.7 13.5L198.3 308c-8.2 8.5-12.3 19.5-12.3 30.5 0 11.6 4.5 23.1 13.5 31.7 17.5 16.8 45.4 16.3 62.2-1.2l208-216.4c0.1-0.1 0.2 0 0.2 0.1L469.9 725.8c0 23.4 18.3 42.5 41.3 43.9C536.8 771.2 558 750.3 558 724.8z"  horiz-adv-x="1024" />

    
    <glyph glyph-name="arrowup" unicode="&#61003;" d="M470 43.2 470 616.9c0 0.1-0.2 0.2-0.2 0.1l-208-216.4c-16.8-17.5-44.7-18.1-62.2-1.2-17.5 16.8-18.1 44.7-1.2 62.2l283.2 294.7c8.3 8.6 19.8 13.5 31.7 13.5 12 0 23.4-4.9 31.7-13.5L829.7 460c8.2-8.5 12.3-19.5 12.3-30.5 0-11.6-4.5-23.1-13.5-31.7-17.5-16.8-45.4-16.3-62.2 1.2l-208 216.4c-0.1 0.1-0.2 0-0.2-0.1l0-573.1c0-23.4-18.3-42.5-41.3-43.9C491.2-3.2 470 17.7 470 43.2z"  horiz-adv-x="1024" />

    
    <glyph glyph-name="arrowright" unicode="&#61004;" d="M173.2 428l573.7 0c0.1 0 0.2 0.2 0.1 0.2l-216.4 208c-17.5 16.8-18.1 44.7-1.2 62.2 16.8 17.5 44.7 18.1 62.2 1.2l294.7-283.2c8.6-8.3 13.5-19.8 13.5-31.7 0-12-4.9-23.4-13.5-31.7L590 68.3c-8.5-8.2-19.5-12.3-30.5-12.3-11.6 0-23.1 4.5-31.7 13.5-16.8 17.5-16.3 45.4 1.2 62.2l216.4 208c0.1 0.1 0 0.2-0.1 0.2L172.2 339.9c-23.4 0-42.5 18.3-43.9 41.3C126.8 406.8 147.7 428 173.2 428z"  horiz-adv-x="1024" />

    
    <glyph glyph-name="arrowleft" unicode="&#61005;" d="M854.8 428 281.1 428c-0.1 0-0.2 0.2-0.1 0.2l216.4 208c17.5 16.8 18.1 44.7 1.2 62.2-16.8 17.5-44.7 18.1-62.2 1.2L141.8 416.5c-8.6-8.3-13.5-19.8-13.5-31.7 0-12 4.9-23.4 13.5-31.7l296.2-284.7c8.5-8.2 19.5-12.3 30.5-12.3 11.6 0 23.1 4.5 31.7 13.5 16.8 17.5 16.3 45.4-1.2 62.2l-216.4 208c-0.1 0.1 0 0.2 0.1 0.2l573.1 0c23.4 0 42.5 18.3 43.9 41.3C901.2 406.8 880.3 428 854.8 428z"  horiz-adv-x="1024" />

    
    <glyph glyph-name="down" unicode="&#61006;" d="M895.7 595.9c0-9.6-3.2-19.3-9.6-27.4L545.2 144.7c-8.3-10.3-20.8-16.3-34.1-16.3-13.2 0-25.8 6-34 16.3l-339.1 422c-15.1 18.8-12.1 46.3 6.7 61.4 18.8 15.1 46.3 12.1 61.4-6.7l305.1-379.6L818 623.3c15.1 18.8 42.6 21.8 61.4 6.7C890.1 621.3 895.7 608.7 895.7 595.9z"  horiz-adv-x="1024" />

    
    <glyph glyph-name="up" unicode="&#61007;" d="M895.7 236.1c0 9.6-3.2 19.3-9.6 27.4L545.2 687.3c-8.3 10.3-20.8 16.3-34.1 16.3-13.2 0-25.8-6-34-16.3l-339.1-422c-15.1-18.8-12.1-46.3 6.7-61.4 18.8-15.1 46.3-12.1 61.4 6.7l305.1 379.6L818 208.7c15.1-18.8 42.6-21.8 61.4-6.7C890.1 210.7 895.7 223.3 895.7 236.1z"  horiz-adv-x="1024" />

    
    <glyph glyph-name="right" unicode="&#61008;" d="M300.6 0.3c9.6 0 19.3 3.2 27.4 9.6l423.8 340.9c10.3 8.3 16.3 20.8 16.3 34.1 0 13.2-6 25.8-16.3 34l-422 339.1c-18.8 15.1-46.3 12.1-61.4-6.7-15.1-18.8-12.1-46.3 6.7-61.4l379.6-305.1L273.2 78c-18.8-15.1-21.8-42.6-6.7-61.4C275.2 5.9 287.8 0.3 300.6 0.3z"  horiz-adv-x="1024" />

    
    <glyph glyph-name="left" unicode="&#61009;" d="M724.4 0.3c-9.6 0-19.3 3.2-27.4 9.6L273.2 350.8c-10.3 8.3-16.3 20.8-16.3 34.1 0 13.2 6 25.8 16.3 34l422 339.1c18.8 15.1 46.3 12.1 61.4-6.7 15.1-18.8 12.1-46.3-6.7-61.4L370.3 384.9 751.8 78c18.8-15.1 21.8-42.6 6.7-61.4C749.8 5.9 737.2 0.3 724.4 0.3z"  horiz-adv-x="1024" />

    
    <glyph glyph-name="minuscircle" unicode="&#61011;" d="M512 834C263.4453125 834 62 632.5546875 62 384s201.4453125-450 450-450 450 201.4453125 450 450S760.5546875 834 512 834zM793.68945313 384c0-17.49023438-14.15039063-31.640625-31.64062501-31.640625l-500.09765624 0c-17.49023438 0-31.640625 14.15039063-31.64062501 31.640625l0 0c0 17.49023438 14.15039063 31.640625 31.640625 31.640625l500.09765626 0C779.5390625 415.640625 793.68945313 401.49023438 793.68945313 384L793.68945313 384z"  horiz-adv-x="1024" />

    
    <glyph glyph-name="minus-circle-o" unicode="&#61012;" d="M512 834C263.4453125 834 62 632.5546875 62 384s201.4453125-450 450-450 450 201.4453125 450 450S760.5546875 834 512 834zM785.42773438 110.57226562000005c-35.5078125-35.5078125-76.90429688-63.45703125-122.95898438-82.88085937C614.83203125 7.4765625 564.20703125-2.71875 512-2.71875s-102.83203125 10.1953125-150.46875 30.32226563c-46.0546875 19.51171875-87.36328125 47.37304688-122.95898438 82.88085937-35.5078125 35.5078125-63.45703125 76.90429688-82.88085937 122.95898438C135.4765625 281.16796875 125.28125 331.79296875 125.28125 384s10.1953125 102.83203125 30.32226563 150.46875c19.51171875 46.0546875 47.37304688 87.36328125 82.88085937 122.95898438 35.5078125 35.5078125 76.90429688 63.45703125 122.95898438 82.88085937C409.16796875 760.5234375 459.79296875 770.71875 512 770.71875s102.83203125-10.1953125 150.46875-30.32226563c46.0546875-19.51171875 87.36328125-47.37304688 122.95898438-82.88085937 35.5078125-35.5078125 63.45703125-76.90429688 82.88085937-122.95898438C888.5234375 486.83203125 898.71875 436.20703125 898.71875 384s-10.1953125-102.83203125-30.32226563-150.46875C848.88476563 187.4765625 821.0234375 146.08007812000005 785.42773438 110.57226562000005zM762.04882813 352.359375l-500.09765626 0c-17.49023438 0-31.640625 14.15039063-31.64062499 31.640625l0 0c0 17.49023438 14.15039063 31.640625 31.640625 31.640625l500.09765624 0c17.49023438 0 31.640625-14.15039063 31.64062501-31.640625l0 0C793.68945313 366.50976562000005 779.5390625 352.359375 762.04882813 352.359375z"  horiz-adv-x="1024" />

    
    <glyph glyph-name="pluscircleo" unicode="&#61014;" d="M512 834C263.4453125 834 62 632.5546875 62 384s201.4453125-450 450-450 450 201.4453125 450 450S760.5546875 834 512 834zM785.42773438 110.57226562000005c-35.5078125-35.5078125-76.90429688-63.45703125-122.95898438-82.88085937C614.83203125 7.4765625 564.20703125-2.71875 512-2.71875c-52.20703125 0-102.83203125 10.1953125-150.46875 30.32226563-46.0546875 19.51171875-87.36328125 47.37304688-122.95898438 82.88085937-35.5078125 35.5078125-63.45703125 76.90429688-82.88085937 122.95898438C135.4765625 281.16796875 125.28125 331.79296875 125.28125 384c0 52.20703125 10.1953125 102.83203125 30.32226563 150.46875 19.51171875 46.0546875 47.37304688 87.36328125 82.88085937 122.95898438 35.5078125 35.5078125 76.90429688 63.45703125 122.95898438 82.88085937C409.16796875 760.5234375 459.79296875 770.71875 512 770.71875c52.20703125 0 102.83203125-10.1953125 150.46875-30.32226563 46.0546875-19.51171875 87.36328125-47.37304688 122.95898438-82.88085937 35.5078125-35.5078125 63.45703125-76.90429688 82.88085937-122.95898438C888.5234375 486.83203125 898.71875 436.20703125 898.71875 384c0-52.20703125-10.1953125-102.83203125-30.32226563-150.46875C848.88476563 187.4765625 821.0234375 146.08007812000005 785.42773438 110.57226562000005zM705.359375 415.20117188L544.08007813 415.20117188 544.08007813 576.48046875c0 17.49023438-14.15039063 31.640625-31.640625 31.640625l0 0c-17.49023438 0-31.640625-14.15039063-31.640625-31.640625l0-161.27929688L318.640625 415.20117188c-17.49023438 0-31.640625-14.15039063-31.640625-31.64062501l0 1e-8c0-17.49023438 14.15039063-31.640625 31.640625-31.64062501l162.15820313 1e-8L480.79882812 191.51953125c0-17.49023438 14.15039063-31.640625 31.64062501-31.640625l-1e-8 0c17.49023438 0 31.640625 14.15039063 31.64062501 31.640625L544.08007813 351.91992187000005 705.359375 351.91992187000005c17.49023438 0 31.640625 14.15039063 31.640625 31.640625l0 0C737 401.05078125 722.84960938 415.20117188 705.359375 415.20117188z"  horiz-adv-x="1024" />

    
    <glyph glyph-name="pluscircle" unicode="&#61015;" d="M512 834C263.4453125 834 62 632.5546875 62 384s201.4453125-450 450-450 450 201.4453125 450 450S760.5546875 834 512 834zM737 383.56054687000005c0-17.49023438-14.15039063-31.640625-31.640625-31.64062499L544.08007813 351.91992187000005 544.08007813 191.51953125c0-17.49023438-14.15039063-31.640625-31.640625-31.640625l0 0c-17.49023438 0-31.640625 14.15039063-31.640625 31.640625L480.79882812 351.91992187000005 318.640625 351.91992187000005c-17.49023438 0-31.640625 14.15039063-31.640625 31.640625l0 0c0 17.49023438 14.15039063 31.640625 31.640625 31.640625l162.15820313 0L480.79882812 576.48046875c0 17.49023438 14.15039063 31.640625 31.64062501 31.640625l-1e-8 0c17.49023438 0 31.640625-14.15039063 31.64062501-31.640625l-1e-8-161.27929688L705.359375 415.20117188C722.84960938 415.20117188 737 401.05078125 737 383.56054687000005L737 383.56054687000005z"  horiz-adv-x="1024" />

    
    <glyph glyph-name="plus" unicode="&#61016;" d="M844.34375 417.75L545.75 417.75 545.75 708.84375c0 18.65625-15.09375 33.75-33.75 33.75l0 0c-18.65625 0-33.75-15.09375-33.75-33.75L478.25 417.75 186.21875 417.75c-18.65625 0-33.75-15.09375-33.75-33.75l0 0c0-18.65625 15.09375-33.75 33.75-33.75L478.25 350.25l0-292.03125c0-18.65625 15.09375-33.75 33.75-33.75l0 0c18.65625 0 33.75 15.09375 33.75 33.75L545.75 350.25l298.59375 0c18.65625 0 33.75 15.09375 33.75 33.75l0 0C878.09375 402.65625 863 417.75 844.34375 417.75z"  horiz-adv-x="1024" />

    
    <glyph glyph-name="info-cirlce" unicode="&#61017;" d="M512 834C263.4453125 834 62 632.5546875 62 384s201.4453125-450 450-450 450 201.4453125 450 450S760.5546875 834 512 834zM509.36328125 671.84179688c17.49023438 0 31.640625-14.15039063 31.640625-31.64062501s-14.15039063-31.640625-31.640625-31.640625-31.640625 14.15039063-31.640625 31.640625S491.87304687 671.84179688 509.36328125 671.84179688zM647.52734375 182.203125c0-17.49023438-14.15039063-31.640625-31.640625-31.640625L541.00390625 150.5625l-63.28125 0-74.8828125 0c-17.49023438 0-31.640625 14.15039063-31.640625 31.640625l0 0c0 17.49023438 14.15039063 31.640625 31.640625 31.640625L477.72265625 213.84375 477.72265625 489.90820313l-52.734375-1e-8c-17.49023438 0-31.640625 14.15039063-31.640625 31.640625l0 0c0 17.49023438 14.15039063 31.640625 31.640625 31.640625l52.734375 0 31.640625 0 0 0c17.49023438 0 31.640625-14.15039063 31.640625-31.640625l0-307.70507812 74.8828125 0C633.37695313 213.84375 647.52734375 199.69335937000005 647.52734375 182.203125L647.52734375 182.203125z"  horiz-adv-x="1024" />

    
    <glyph glyph-name="infocirlceo" unicode="&#61018;" d="M512 834C263.4453125 834 62 632.5546875 62 384s201.4453125-450 450-450 450 201.4453125 450 450S760.5546875 834 512 834zM785.42773438 110.57226562000005c-35.5078125-35.5078125-76.90429688-63.45703125-122.95898438-82.88085937C614.83203125 7.4765625 564.20703125-2.71875 512-2.71875c-52.20703125 0-102.83203125 10.1953125-150.46875 30.32226563-46.0546875 19.51171875-87.36328125 47.37304688-122.95898438 82.88085937-35.5078125 35.5078125-63.45703125 76.90429688-82.88085937 122.95898438C135.4765625 281.16796875 125.28125 331.79296875 125.28125 384c0 52.20703125 10.1953125 102.83203125 30.32226563 150.46875 19.51171875 46.0546875 47.37304688 87.36328125 82.88085937 122.95898438 35.5078125 35.5078125 76.90429688 63.45703125 122.95898438 82.88085937C409.16796875 760.5234375 459.79296875 770.71875 512 770.71875c52.20703125 0 102.83203125-10.1953125 150.46875-30.32226563 46.0546875-19.51171875 87.36328125-47.37304688 122.95898438-82.88085937 35.5078125-35.5078125 63.45703125-76.90429688 82.88085937-122.95898438C888.5234375 486.83203125 898.71875 436.20703125 898.71875 384c0-52.20703125-10.1953125-102.83203125-30.32226563-150.46875C848.88476563 187.4765625 821.0234375 146.08007812000005 785.42773438 110.57226562000005zM615.88671875 213.84375L541.00390625 213.84375 541.00390625 521.54882813c0 17.49023438-14.15039063 31.640625-31.640625 31.64062499l0 0-31.640625 0-52.734375 0c-17.49023438 0-31.640625-14.15039063-31.640625-31.640625l0 0c0-17.49023438 14.15039063-31.640625 31.640625-31.640625l52.734375 0 0-276.06445312-74.8828125 0c-17.49023438 0-31.640625-14.15039063-31.640625-31.640625l0 0c0-17.49023438 14.15039063-31.640625 31.640625-31.640625L477.72265625 150.5625l63.28125 0 74.8828125 0c17.49023438 0 31.640625 14.15039063 31.640625 31.640625l0 0C647.52734375 199.69335937000005 633.37695313 213.84375 615.88671875 213.84375zM509.36328125 640.20117188m-31.640625-1e-8a31.640625 31.640625 0 1 1 63.28125 0 31.640625 31.640625 0 1 1-63.28125 0Z"  horiz-adv-x="1024" />

    
    <glyph glyph-name="exclamationcircle" unicode="&#61021;" d="M512 834C263.4453125 834 62 632.5546875 62 384s201.4453125-450 450-450 450 201.4453125 450 450S760.5546875 834 512 834zM476.84375 630.97265625c0 19.42382813 15.73242188 35.15625 35.15625 35.15625 19.42382813 0 35.15625-15.73242188 35.15625-35.15625l0-324.31640625c0-19.42382813-15.73242188-35.15625-35.15625-35.15625-19.42382813 0-35.15625 15.73242188-35.15625 35.15625L476.84375 630.97265625zM512 136.1484375c-21.88476563 0-39.55078125 17.66601563-39.55078125 39.55078125 0 21.88476563 17.66601563 39.55078125 39.55078125 39.55078125s39.55078125-17.66601563 39.55078125-39.55078125C551.55078125 153.90234375 533.88476563 136.1484375 512 136.1484375z"  horiz-adv-x="1024" />

    
    <glyph glyph-name="exclamation-circle-o" unicode="&#61022;" d="M512 770.71875c52.20703125 0 102.83203125-10.1953125 150.46875-30.32226563 46.0546875-19.51171875 87.36328125-47.37304688 122.95898438-82.88085937 35.5078125-35.5078125 63.45703125-76.90429688 82.88085937-122.95898438C888.5234375 486.83203125 898.71875 436.20703125 898.71875 384s-10.1953125-102.83203125-30.32226563-150.46875c-19.51171875-46.0546875-47.37304688-87.36328125-82.88085937-122.95898438-35.5078125-35.5078125-76.90429688-63.45703125-122.95898438-82.88085937C614.83203125 7.4765625 564.20703125-2.71875 512-2.71875s-102.83203125 10.1953125-150.46875 30.32226563c-46.0546875 19.51171875-87.36328125 47.37304688-122.95898438 82.88085937-35.5078125 35.5078125-63.45703125 76.90429688-82.88085937 122.95898438C135.4765625 281.16796875 125.28125 331.79296875 125.28125 384s10.1953125 102.83203125 30.32226563 150.46875c19.51171875 46.0546875 47.37304688 87.36328125 82.88085937 122.95898438 35.5078125 35.5078125 76.90429688 63.45703125 122.95898438 82.88085937C409.16796875 760.5234375 459.79296875 770.71875 512 770.71875M512 834C263.4453125 834 62 632.5546875 62 384s201.4453125-450 450-450 450 201.4453125 450 450S760.5546875 834 512 834L512 834zM512 271.5c-19.42382813 0-35.15625 15.73242188-35.15625 35.15625L476.84375 630.97265625c0 19.42382813 15.73242188 35.15625 35.15625 35.15625 19.42382813 0 35.15625-15.73242188 35.15625-35.15625l0-324.31640625C547.15625 287.23242187000005 531.42382813 271.5 512 271.5zM512 175.69921875m-39.55078125 0a39.55078125 39.55078125 0 1 1 79.1015625 0 39.55078125 39.55078125 0 1 1-79.1015625 0Z"  horiz-adv-x="1024" />

    
    <glyph glyph-name="close-circle" unicode="&#61023;" d="M512 834C263.4453125 834 62 632.5546875 62 384s201.4453125-450 450-450 450 201.4453125 450 450S760.5546875 834 512 834zM692.43945313 247.85742187000005c12.3046875-12.39257813 12.3046875-32.43164063-0.08789063-44.73632812-6.15234375-6.15234375-14.23828125-9.22851563-22.32421875-9.22851562-8.0859375 0-16.25976563 3.07617188-22.41210938 9.31640625L512 339.17578125 376.38476562 203.20898437000005c-6.15234375-6.24023438-14.32617188-9.31640625-22.41210937-9.31640624-8.0859375 0-16.171875 3.07617188-22.32421875 9.22851562-12.39257813 12.3046875-12.39257813 32.34375-0.08789062 44.73632813L467.3515625 384 331.56054687 520.14257813c-12.3046875 12.39257813-12.3046875 32.43164063 0.08789063 44.73632812 12.39257813 12.3046875 32.43164063 12.3046875 44.73632813-0.08789063L512 428.82421875l135.61523438 136.0546875c12.3046875 12.39257813 32.34375 12.39257813 44.73632812 0.08789063 12.39257813-12.3046875 12.39257813-32.34375 0.08789062-44.73632813L556.6484375 384 692.43945313 247.85742187000005z"  horiz-adv-x="1024" />

    
    <glyph glyph-name="close-circle-o" unicode="&#61024;" d="M692.3515625 564.87890625c-12.39257813 12.3046875-32.43164063 12.3046875-44.73632813-0.08789063L512 428.82421875 376.38476562 564.79101563c-12.3046875 12.39257813-32.34375 12.39257813-44.73632812 0.08789062-12.39257813-12.3046875-12.39257813-32.34375-0.08789062-44.73632813L467.3515625 384 331.56054687 247.85742187000005c-12.3046875-12.39257813-12.3046875-32.43164063 0.08789063-44.73632812 6.15234375-6.15234375 14.23828125-9.22851563 22.32421875-9.22851562 8.0859375 0 16.25976563 3.07617188 22.41210938 9.31640625L512 339.17578125l135.61523438-136.0546875c6.15234375-6.24023438 14.32617188-9.31640625 22.41210937-9.31640625 8.0859375 0 16.171875 3.07617188 22.32421875 9.22851563 12.39257813 12.3046875 12.39257813 32.34375 0.08789062 44.73632812L556.6484375 384l135.703125 136.14257813C704.74414063 532.53515625 704.74414063 552.57421875 692.3515625 564.87890625zM512 834C263.4453125 834 62 632.5546875 62 384s201.4453125-450 450-450 450 201.4453125 450 450S760.5546875 834 512 834zM785.42773438 110.57226562000005c-35.5078125-35.5078125-76.90429688-63.45703125-122.95898438-82.88085937C614.83203125 7.4765625 564.20703125-2.71875 512-2.71875c-52.20703125 0-102.83203125 10.1953125-150.46875 30.32226563-46.0546875 19.51171875-87.36328125 47.37304688-122.95898438 82.88085937-35.5078125 35.5078125-63.45703125 76.90429688-82.88085937 122.95898438C135.4765625 281.16796875 125.28125 331.79296875 125.28125 384c0 52.20703125 10.1953125 102.83203125 30.32226563 150.46875 19.51171875 46.0546875 47.37304688 87.36328125 82.88085937 122.95898438 35.5078125 35.5078125 76.90429688 63.45703125 122.95898438 82.88085937C409.16796875 760.5234375 459.79296875 770.71875 512 770.71875c52.20703125 0 102.83203125-10.1953125 150.46875-30.32226563 46.0546875-19.51171875 87.36328125-47.37304688 122.95898438-82.88085937 35.5078125-35.5078125 63.45703125-76.90429688 82.88085937-122.95898438C888.5234375 486.83203125 898.71875 436.20703125 898.71875 384c0-52.20703125-10.1953125-102.83203125-30.32226563-150.46875C848.88476563 187.4765625 821.0234375 146.08007812000005 785.42773438 110.57226562000005z"  horiz-adv-x="1024" />

    
    <glyph glyph-name="check-circle" unicode="&#61025;" d="M512 834C263.4453125 834 62 632.5546875 62 384s201.4453125-450 450-450 450 201.4453125 450 450S760.5546875 834 512 834zM740.77929688 520.7578125L424.8125 203.73632812000005c-0.08789063-0.08789063-0.26367188-0.26367188-0.3515625-0.35156249-2.109375-2.28515625-4.65820313-4.30664063-7.47070313-5.88867188-4.921875-2.8125-10.37109375-4.13085938-15.64453124-4.13085937-10.98632813 0-21.70898438 5.71289063-27.50976563 15.99609375L278.12304687 376.70507812000005c-8.70117188 15.20507813-3.42773438 34.54101563 11.77734376 43.15429688 15.20507813 8.70117188 34.54101563 3.42773438 43.15429687-11.77734375l75.05859375-131.39648438 287.84179688 288.72070313c12.3046875 12.39257813 32.34375 12.39257813 44.73632812 0.08789063C753.08398438 553.1015625 753.08398438 533.0625 740.77929688 520.7578125z"  horiz-adv-x="1024" />

    
    <glyph glyph-name="check-circle-o" unicode="&#61026;" d="M695.95507813 565.40625L408.11328125 276.68554687000005l-75.05859375 131.39648438c-8.70117188 15.20507813-27.94921875 20.47851563-43.15429688 11.77734375-15.20507813-8.70117188-20.47851563-27.94921875-11.77734375-43.15429688l95.62500001-167.43164062c5.80078125-10.1953125 16.5234375-15.99609375 27.50976562-15.99609375 5.36132813 0 10.72265625 1.31835938 15.64453125 4.13085938 2.8125 1.66992188 5.36132813 3.60351563 7.47070313 5.88867187 0.08789063 0.08789063 0.26367188 0.26367188 0.3515625 0.3515625l315.96679687 316.93359375c12.3046875 12.39257813 12.3046875 32.43164063-0.08789063 44.73632813C728.29882813 577.79882813 708.34765625 577.79882813 695.95507813 565.40625zM512 834C263.4453125 834 62 632.5546875 62 384s201.4453125-450 450-450 450 201.4453125 450 450S760.5546875 834 512 834zM785.42773438 110.57226562000005c-35.5078125-35.5078125-76.90429688-63.45703125-122.95898438-82.88085937C614.83203125 7.4765625 564.20703125-2.71875 512-2.71875c-52.20703125 0-102.83203125 10.1953125-150.46875 30.32226563-46.0546875 19.51171875-87.36328125 47.37304688-122.95898438 82.88085937-35.5078125 35.5078125-63.45703125 76.90429688-82.88085937 122.95898438C135.4765625 281.16796875 125.28125 331.79296875 125.28125 384c0 52.20703125 10.1953125 102.83203125 30.32226563 150.46875 19.51171875 46.0546875 47.37304688 87.36328125 82.88085937 122.95898438 35.5078125 35.5078125 76.90429688 63.45703125 122.95898438 82.88085937C409.16796875 760.5234375 459.79296875 770.71875 512 770.71875c52.20703125 0 102.83203125-10.1953125 150.46875-30.32226563 46.0546875-19.51171875 87.36328125-47.37304688 122.95898438-82.88085937 35.5078125-35.5078125 63.45703125-76.90429688 82.88085937-122.95898438C888.5234375 486.83203125 898.71875 436.20703125 898.71875 384c0-52.20703125-10.1953125-102.83203125-30.32226563-150.46875C848.88476563 187.4765625 821.0234375 146.08007812000005 785.42773438 110.57226562000005z"  horiz-adv-x="1024" />

    
    <glyph glyph-name="check" unicode="&#61027;" d="M328 96.3c-1.8 0-3.5 0.1-5.3 0.4-12.4 1.7-23.2 9-29.4 19.8L134 395.2c-11 19.2-4.3 43.6 14.9 54.6 19.2 11 43.6 4.3 54.6-14.9l133.2-233.2 491 492.5c15.6 15.6 40.9 15.7 56.6 0.1 15.6-15.6 15.7-40.9 0.1-56.6L358.2 109.9l-1.9-1.9C348.7 100.4 338.5 96.3 328 96.3z"  horiz-adv-x="1024" />

    
    <glyph glyph-name="close" unicode="&#61028;" d="M567.7 381.1l254.8 254.6c15.4 15.4 15.4 40.3 0 55.6-15.4 15.4-40.3 15.4-55.6 0L512 436.8 257.1 691.4c-15.4 15.4-40.3 15.4-55.6 0-15.4-15.4-15.4-40.3 0-55.6l254.8-254.6L201.5 126.5c-15.4-15.4-15.4-40.3 0-55.6 7.7-7.7 17.8-11.5 27.8-11.5 10.1 0 20.1 3.8 27.8 11.5L512 325.5l254.9-254.7c7.7-7.7 17.7-11.5 27.8-11.5 10.1 0 20.1 3.8 27.8 11.5 15.4 15.4 15.4 40.3 0 55.6L567.7 381.1z"  horiz-adv-x="1024" />

    
    <glyph glyph-name="book" unicode="&#61032;" d="M822.5 832.5 562.6 832.5l-72 0-121 0-72 0-93.1 0c-39.8 0-72-32.2-72-72l0-753.1c0-39.8 32.2-72 72-72l618.1 0c39.8 0 72 32.2 72 72L894.6 760.5C894.5 800.3 862.2 832.5 822.5 832.5zM490.6 760.5l0-209.9-8.7 8.7-33.3 33.3c-9.5 9.5-25 9.6-34.6 0.1l-44.4-43.9L369.6 760.5 490.6 760.5zM297.6 760.5l0-277.3c0-19.7 15.9-35.6 35.6-35.6l0 0c23.3 0 45.7 9.2 62.3 25.6l35.5 35.2 34.9-34.9c15.9-15.9 37.3-25.2 59.8-25.9l1.4 0c19.7 0 35.6 15.9 35.6 35.6L562.7 760.5l259.9 0 0-624.3-618 0L204.6 760.5 297.6 760.5zM204.5 7.4l0 56.8 618 0 0-56.8L204.5 7.4z"  horiz-adv-x="1024" />

    
    <glyph glyph-name="bars" unicode="&#61034;" d="M186.8 639.2m-63 0a63 63 0 1 0 126 0 63 63 0 1 0-126 0ZM855.7 610.2 357.9 610.2c-19.9 0-36.1 16.2-36.1 36.1l0 0c0 19.9 16.2 36.1 36.1 36.1l497.9 0c19.9 0 36.1-16.2 36.1-36.1l0 0C891.8 626.3 875.7 610.2 855.7 610.2zM186.8 384m-63 0a63 63 0 1 0 126 0 63 63 0 1 0-126 0ZM855.7 354.9 357.9 354.9c-19.9 0-36.1 16.2-36.1 36.1l0 0c0 19.9 16.2 36.1 36.1 36.1l497.9 0c19.9 0 36.1-16.2 36.1-36.1l0 0C891.8 371.1 875.7 354.9 855.7 354.9zM186.8 128.8m-63 0a63 63 0 1 0 126 0 63 63 0 1 0-126 0ZM855.7 99.7 357.9 99.7c-19.9 0-36.1 16.2-36.1 36.1l0 0c0 19.9 16.2 36.1 36.1 36.1l497.9 0c19.9 0 36.1-16.2 36.1-36.1l0 0C891.8 115.8 875.7 99.7 855.7 99.7z"  horiz-adv-x="1024" />

    
    <glyph glyph-name="question" unicode="&#61035;" d="M644.3 632.6c-39.2 41.2-94.5 64.7-151.9 64.7-54.3-0.1-105.3-21.3-143.7-59.8-38.4-38.4-59.5-89.5-59.5-143.8 0-19.9 16.1-36 36-36s36 16.1 36 36c0 72.4 58.9 131.5 131.3 131.6 0.1 0 0.2 0 0.3 0 37.5 0 73.7-15.4 99.2-42.3 22.6-23.8 34.1-54 32.4-85.3-1.4-26.6-2.7-51.7-79.7-128.7-46.3-46.3-88.2-92.4-93.8-148.8-1.9-19.8 12.5-37.4 32.3-39.4 1.2-0.1 2.4-0.2 3.6-0.2 18.3 0 34 13.9 35.8 32.5 2.9 29.5 30.1 62 73 104.9 89.4 89.4 98.3 130.8 100.7 175.7C699.2 545.1 680.7 594.4 644.3 632.6zM486 80.2m-43.2 0a43.2 43.2 0 1 0 86.4 0 43.2 43.2 0 1 0-86.4 0Z"  horiz-adv-x="1024" />

    
    <glyph glyph-name="question-circle" unicode="&#61036;" d="M512 834C263.4453125 834 62 632.5546875 62 384s201.4453125-450 450-450 450 201.4453125 450 450S760.5546875 834 512 834zM506.28710937 119.80078125c-21.00585938 0-38.05664063 17.05078125-38.05664062 38.05664063s17.05078125 38.05664063 38.05664063 38.05664062c21.00585938 0 38.05664063-17.05078125 38.05664062-38.05664063S527.29296875 119.80078125 506.28710937 119.80078125zM669.58789063 490.34765625c-2.19726563-40.69335938-14.67773438-72.7734375-77.08007813-135.17578125-31.640625-31.640625-51.59179688-55.37109375-53.61328125-76.20117188-1.58203125-16.34765625-15.38085938-28.56445313-31.46484375-28.56445312-1.0546875 0-2.109375 0.08789063-3.1640625 0.17578125-17.40234375 1.66992188-30.05859375 17.2265625-28.38867188 34.62890625 4.30664063 43.85742188 36.47460938 79.27734375 71.89453126 114.69726563 56.68945313 56.68945313 57.65625 74.70703125 58.62304687 93.77929687 1.14257813 22.23632813-7.03125 43.76953125-23.203125 60.73242188-18.36914063 19.3359375-44.38476563 30.41015625-71.3671875 30.41015625-0.08789063 0-0.17578125 0-0.17578125 0-51.94335938-0.08789063-94.30664063-42.45117188-94.30664063-94.48242188 0-17.49023438-14.15039063-31.640625-31.64062499-31.640625s-31.640625 14.15039063-31.640625 31.640625c0 42.09960938 16.34765625 81.65039063 46.0546875 111.4453125 29.70703125 29.79492188 69.2578125 46.23046875 111.35742187 46.31835938 44.38476563 0.08789063 87.27539063-18.19335938 117.59765625-50.09765625C657.37109375 568.39453125 671.69726563 530.16210938 669.58789063 490.34765625z"  horiz-adv-x="1024" />

    
    <glyph glyph-name="question-circle-o" unicode="&#61037;" d="M512 834C263.4453125 834 62 632.5546875 62 384s201.4453125-450 450-450 450 201.4453125 450 450S760.5546875 834 512 834zM785.42773438 110.57226562000005c-35.5078125-35.5078125-76.90429688-63.45703125-122.95898438-82.88085937C614.83203125 7.4765625 564.20703125-2.71875 512-2.71875s-102.83203125 10.1953125-150.46875 30.32226563c-46.0546875 19.51171875-87.36328125 47.37304688-122.95898438 82.88085937-35.5078125 35.5078125-63.45703125 76.90429688-82.88085937 122.95898438C135.4765625 281.16796875 125.28125 331.79296875 125.28125 384s10.1953125 102.83203125 30.32226563 150.46875c19.51171875 46.0546875 47.37304688 87.36328125 82.88085937 122.95898438 35.5078125 35.5078125 76.90429688 63.45703125 122.95898438 82.88085937C409.16796875 760.5234375 459.79296875 770.71875 512 770.71875s102.83203125-10.1953125 150.46875-30.32226563c46.0546875-19.51171875 87.36328125-47.37304688 122.95898438-82.88085937 35.5078125-35.5078125 63.45703125-76.90429688 82.88085937-122.95898438C888.5234375 486.83203125 898.71875 436.20703125 898.71875 384s-10.1953125-102.83203125-30.32226563-150.46875C848.88476563 187.4765625 821.0234375 146.08007812000005 785.42773438 110.57226562000005zM541.79492188 373.01367187000005M507.4296875 250.49414062000005c-1.0546875 0-2.109375 0.08789063-3.1640625 0.17578126-17.40234375 1.66992188-30.05859375 17.2265625-28.38867188 34.62890625 4.30664063 43.85742188 36.47460938 79.27734375 71.89453126 114.69726562 56.68945313 56.68945313 57.65625 74.70703125 58.62304687 93.77929688 1.14257813 22.23632813-7.03125 43.76953125-23.203125 60.73242187-18.36914063 19.3359375-44.38476563 30.41015625-71.3671875 30.41015625-0.08789063 0-0.17578125 0-0.17578125 0-51.94335938-0.08789063-94.30664063-42.45117188-94.30664063-94.48242188 0-17.49023438-14.15039063-31.640625-31.64062499-31.64062499s-31.640625 14.15039063-31.640625 31.640625c0 42.09960938 16.34765625 81.65039063 46.0546875 111.44531249 29.70703125 29.79492188 69.2578125 46.23046875 111.35742187 46.31835938 44.38476563 0.08789063 87.27539063-18.19335938 117.59765625-50.09765625 28.21289063-29.70703125 42.62695313-67.93945313 40.51757813-107.66601563-2.19726563-40.69335938-14.67773438-72.7734375-77.08007813-135.17578124-31.640625-31.640625-51.59179688-55.37109375-53.61328125-76.20117188C537.3125 262.7109375 523.51367188 250.49414062000005 507.4296875 250.49414062000005zM506.28710937 157.9453125m-38.05664062 0a38.05664063 38.05664063 0 1 1 76.11328125 0 38.05664063 38.05664063 0 1 1-76.11328125 0Z"  horiz-adv-x="1024" />

    
    <glyph glyph-name="pause" unicode="&#61038;" d="M337.15625 683.53125L337.15625 683.53125c-18.65625 0-33.75-15.09375-33.75-33.75l0-531.5625c0-18.65625 15.09375-33.75 33.75-33.75l0 0c18.65625 0 33.75 15.09375 32.8125 33.75l0 531.5625C370.90625 668.4375 355.8125 683.53125 337.15625 683.53125zM686.84375 683.53125L686.84375 683.53125c-18.65625 0-33.75-15.09375-33.75-33.75l0-531.5625c0-18.65625 15.09375-33.75 33.75-33.75l0 0c18.65625 0 33.75 15.09375 33.75 33.75l0 531.5625C720.59375 668.4375 705.5 683.53125 686.84375 683.53125z"  horiz-adv-x="1024" />

    
    <glyph glyph-name="pause-circle-o" unicode="&#61040;" d="M512 834C263.4453125 834 62 632.5546875 62 384s201.4453125-450 450-450 450 201.4453125 450 450S760.5546875 834 512 834zM785.42773438 110.57226562000005c-35.5078125-35.5078125-76.90429688-63.45703125-122.95898438-82.88085937C614.83203125 7.4765625 564.20703125-2.71875 512-2.71875c-52.20703125 0-102.83203125 10.1953125-150.46875 30.32226563-46.0546875 19.51171875-87.36328125 47.37304688-122.95898438 82.88085937-35.5078125 35.5078125-63.45703125 76.90429688-82.88085937 122.95898438C135.4765625 281.16796875 125.28125 331.79296875 125.28125 384s10.1953125 102.83203125 30.32226563 150.46875c19.51171875 46.0546875 47.37304688 87.36328125 82.88085937 122.95898438 35.5078125 35.5078125 76.90429688 63.45703125 122.95898438 82.88085937C409.16796875 760.5234375 459.79296875 770.71875 512 770.71875c52.20703125 0 102.83203125-10.1953125 150.46875-30.32226563 46.0546875-19.51171875 87.36328125-47.37304688 122.95898438-82.88085937 35.5078125-35.5078125 63.45703125-76.90429688 82.88085937-122.95898438C888.5234375 486.83203125 898.71875 436.20703125 898.71875 384s-10.1953125-102.83203125-30.32226563-150.46875C848.88476563 187.4765625 821.0234375 146.08007812000005 785.42773438 110.57226562000005zM375.76953125 552.75L375.76953125 552.75c-17.49023438 0-31.640625-14.15039063-31.640625-31.640625l0-274.21875c0-17.49023438 14.15039063-31.640625 31.640625-31.640625l0 0c17.49023438 0 31.640625 14.15039063 31.640625 31.640625L407.41015625 521.109375C407.41015625 538.59960938 393.25976562 552.75 375.76953125 552.75zM648.23046875 552.75L648.23046875 552.75c-17.49023438 0-31.640625-14.15039063-31.640625-31.640625l0-274.21875c0-17.49023438 14.15039063-31.640625 31.640625-31.640625l0 0c17.49023438 0 31.640625 14.15039063 31.640625 31.640625L679.87109375 521.109375C679.87109375 538.59960938 665.72070313 552.75 648.23046875 552.75z"  horiz-adv-x="1024" />

    
    <glyph glyph-name="clock-circle" unicode="&#61041;" d="M512 834C263.4453125 834 62 632.5546875 62 384s201.4453125-450 450-450 450 201.4453125 450 450S760.5546875 834 512 834zM737.87890625 359.390625c0-17.49023438-14.15039063-31.640625-31.640625-31.640625L543.640625 327.75l0 0c-34.98046875 0-63.28125 28.30078125-63.28125 63.28125l0 0L480.359375 601.96875c0 17.49023438 14.15039063 31.640625 31.640625 31.640625l0 0c17.49023438 0 31.640625-14.15039063 31.640625-31.640625l0-210.9375 162.59765625 0C723.72851563 391.03125 737.87890625 376.88085937000005 737.87890625 359.390625L737.87890625 359.390625z"  horiz-adv-x="1024" />

    
    <glyph glyph-name="clockcircleo" unicode="&#61042;" d="M512 834C263.4453125 834 62 632.5546875 62 384s201.4453125-450 450-450 450 201.4453125 450 450S760.5546875 834 512 834zM785.42773438 110.57226562000005c-35.5078125-35.5078125-76.90429688-63.45703125-122.95898438-82.88085937C614.83203125 7.4765625 564.20703125-2.71875 512-2.71875s-102.83203125 10.1953125-150.46875 30.32226563c-46.0546875 19.51171875-87.36328125 47.37304688-122.95898438 82.88085937-35.5078125 35.5078125-63.45703125 76.90429688-82.88085937 122.95898438C135.4765625 281.16796875 125.28125 331.79296875 125.28125 384s10.1953125 102.83203125 30.32226563 150.46875c19.51171875 46.0546875 47.37304688 87.36328125 82.88085937 122.95898438 35.5078125 35.5078125 76.90429688 63.45703125 122.95898438 82.88085937C409.16796875 760.5234375 459.79296875 770.71875 512 770.71875s102.83203125-10.1953125 150.46875-30.32226563c46.0546875-19.51171875 87.36328125-47.37304688 122.95898438-82.88085937 35.5078125-35.5078125 63.45703125-76.90429688 82.88085937-122.95898438C888.5234375 486.83203125 898.71875 436.20703125 898.71875 384s-10.1953125-102.83203125-30.32226563-150.46875C848.88476563 187.4765625 821.0234375 146.08007812000005 785.42773438 110.57226562000005zM706.23828125 391.03125L543.640625 391.03125 543.640625 601.96875c0 17.49023438-14.15039063 31.640625-31.640625 31.640625l0 0c-17.49023438 0-31.640625-14.15039063-31.640625-31.640625l0-210.9375 0 0c0-34.98046875 28.30078125-63.28125 63.28125-63.28125l0 0 162.59765625 0c17.49023438 0 31.640625 14.15039063 31.640625 31.640625l0 0C737.87890625 376.88085937000005 723.72851563 391.03125 706.23828125 391.03125z"  horiz-adv-x="1024" />

    
    <glyph glyph-name="swap" unicode="&#61043;" d="M193.9 481.4c-0.3 0-0.6 0-0.9 0.1-0.4 0-0.7 0.1-1.1 0.1-0.2 0-0.5 0.1-0.7 0.1-0.4 0.1-0.8 0.1-1.1 0.2-0.2 0-0.4 0.1-0.6 0.1-0.4 0.1-0.8 0.2-1.1 0.3-0.2 0-0.4 0.1-0.6 0.1-0.4 0.1-0.7 0.2-1.1 0.3-0.2 0.1-0.4 0.1-0.6 0.2-0.3 0.1-0.7 0.2-1 0.3-0.2 0.1-0.5 0.2-0.7 0.2-0.3 0.1-0.6 0.2-0.9 0.3-0.3 0.1-0.5 0.2-0.8 0.3-0.3 0.1-0.5 0.2-0.8 0.3-0.3 0.1-0.6 0.3-0.9 0.4-0.2 0.1-0.4 0.2-0.7 0.3-0.3 0.2-0.6 0.3-0.9 0.5-0.2 0.1-0.4 0.2-0.6 0.3-0.3 0.2-0.7 0.4-1 0.6-0.2 0.1-0.3 0.2-0.5 0.3-0.3 0.2-0.7 0.4-1 0.6-0.2 0.1-0.3 0.2-0.5 0.3-0.3 0.2-0.6 0.4-0.9 0.7-0.2 0.1-0.4 0.3-0.5 0.4-0.3 0.2-0.6 0.4-0.8 0.7-0.2 0.2-0.5 0.4-0.7 0.6-0.2 0.2-0.4 0.4-0.6 0.5-0.9 0.8-1.7 1.6-2.5 2.5-0.2 0.2-0.4 0.4-0.5 0.6-0.2 0.2-0.4 0.5-0.6 0.7-0.2 0.3-0.4 0.6-0.7 0.8-0.1 0.2-0.3 0.4-0.4 0.5-0.2 0.3-0.4 0.6-0.7 0.9-0.1 0.2-0.2 0.3-0.3 0.5-0.2 0.3-0.4 0.7-0.6 1-0.1 0.2-0.2 0.3-0.3 0.5-0.2 0.3-0.4 0.7-0.6 1-0.1 0.2-0.2 0.4-0.3 0.6-0.2 0.3-0.3 0.6-0.5 0.9-0.1 0.2-0.2 0.4-0.3 0.6-0.1 0.3-0.3 0.6-0.4 0.9-0.1 0.3-0.2 0.5-0.3 0.8-0.1 0.3-0.2 0.5-0.3 0.8-0.1 0.3-0.2 0.6-0.3 0.9-0.1 0.2-0.2 0.5-0.2 0.7-0.1 0.3-0.2 0.7-0.3 1-0.1 0.2-0.1 0.4-0.2 0.6-0.1 0.4-0.2 0.7-0.3 1.1 0 0.2-0.1 0.4-0.1 0.6-0.1 0.4-0.2 0.8-0.2 1.1 0 0.2-0.1 0.4-0.1 0.6-0.1 0.4-0.1 0.8-0.2 1.1 0 0.2-0.1 0.5-0.1 0.7 0 0.4-0.1 0.7-0.1 1.1 0 0.3 0 0.6-0.1 0.9 0 0.3 0 0.6-0.1 0.8-0.1 1.2-0.1 2.4 0 3.6 0 0.3 0 0.6 0.1 0.8 0 0.3 0 0.6 0.1 0.9 0 0.4 0.1 0.7 0.1 1.1 0 0.2 0.1 0.5 0.1 0.7 0.1 0.4 0.1 0.8 0.2 1.1 0 0.2 0.1 0.4 0.1 0.6 0.1 0.4 0.2 0.8 0.2 1.1 0 0.2 0.1 0.4 0.1 0.6 0.1 0.4 0.2 0.7 0.3 1.1 0.1 0.2 0.1 0.4 0.2 0.6 0.1 0.3 0.2 0.7 0.3 1 0.1 0.2 0.2 0.5 0.2 0.7 0.1 0.3 0.2 0.6 0.3 0.9 0.1 0.3 0.2 0.5 0.3 0.8 0.1 0.3 0.2 0.5 0.3 0.8 0.1 0.3 0.3 0.6 0.4 0.9 0.1 0.2 0.2 0.4 0.3 0.6 0.2 0.3 0.3 0.6 0.5 0.9 0.1 0.2 0.2 0.4 0.3 0.6 0.2 0.3 0.4 0.7 0.6 1 0.1 0.2 0.2 0.3 0.3 0.5 0.2 0.3 0.4 0.7 0.6 1 0.1 0.2 0.2 0.3 0.3 0.5 0.2 0.3 0.4 0.6 0.7 0.9 0.1 0.2 0.3 0.4 0.4 0.5 0.2 0.3 0.4 0.6 0.7 0.8 0.2 0.2 0.4 0.5 0.6 0.7 0.2 0.2 0.4 0.4 0.6 0.6 0.4 0.4 0.8 0.9 1.2 1.3l177.5 177.5c14.1 14.1 36.9 14.1 50.9 0l0 0c14.1-14.1 14.1-36.9 0-50.9l-116-116 544.1 0c19.9 0 36-16.1 36-36l0 0c0-19.9-16.1-36-36-36l-631 0c0 0 0 0 0 0-0.6 0-1.2 0-1.8 0C194.4 481.3 194.1 481.3 193.9 481.4zM830.1 286.6c0.3 0 0.6 0 0.9-0.1 0.4 0 0.7-0.1 1.1-0.1 0.2 0 0.5-0.1 0.7-0.1 0.4-0.1 0.8-0.1 1.1-0.2 0.2 0 0.4-0.1 0.6-0.1 0.4-0.1 0.8-0.2 1.1-0.3 0.2 0 0.4-0.1 0.6-0.1 0.4-0.1 0.7-0.2 1.1-0.3 0.2-0.1 0.4-0.1 0.6-0.2 0.3-0.1 0.7-0.2 1-0.3 0.2-0.1 0.5-0.2 0.7-0.2 0.3-0.1 0.6-0.2 0.9-0.3 0.3-0.1 0.5-0.2 0.8-0.3 0.3-0.1 0.5-0.2 0.8-0.3 0.3-0.1 0.6-0.3 0.9-0.4 0.2-0.1 0.4-0.2 0.7-0.3 0.3-0.2 0.6-0.3 0.9-0.5 0.2-0.1 0.4-0.2 0.6-0.3 0.3-0.2 0.7-0.4 1-0.6 0.2-0.1 0.3-0.2 0.5-0.3 0.3-0.2 0.7-0.4 1-0.6 0.2-0.1 0.3-0.2 0.5-0.3 0.3-0.2 0.6-0.4 0.9-0.7 0.2-0.1 0.4-0.3 0.5-0.4 0.3-0.2 0.6-0.4 0.8-0.7 0.2-0.2 0.5-0.4 0.7-0.6 0.2-0.2 0.4-0.4 0.6-0.5 0.9-0.8 1.7-1.6 2.5-2.5 0.2-0.2 0.4-0.4 0.5-0.6 0.2-0.2 0.4-0.5 0.6-0.7 0.2-0.3 0.4-0.6 0.7-0.8 0.1-0.2 0.3-0.4 0.4-0.5 0.2-0.3 0.4-0.6 0.7-0.9 0.1-0.2 0.2-0.3 0.3-0.5 0.2-0.3 0.4-0.7 0.6-1 0.1-0.2 0.2-0.3 0.3-0.5 0.2-0.3 0.4-0.7 0.6-1 0.1-0.2 0.2-0.4 0.3-0.6 0.2-0.3 0.3-0.6 0.5-0.9 0.1-0.2 0.2-0.4 0.3-0.6 0.1-0.3 0.3-0.6 0.4-0.9 0.1-0.3 0.2-0.5 0.3-0.8 0.1-0.3 0.2-0.5 0.3-0.8 0.1-0.3 0.2-0.6 0.3-0.9 0.1-0.2 0.2-0.5 0.2-0.7 0.1-0.3 0.2-0.7 0.3-1 0.1-0.2 0.1-0.4 0.2-0.6 0.1-0.4 0.2-0.7 0.3-1.1 0-0.2 0.1-0.4 0.1-0.6 0.1-0.4 0.2-0.8 0.2-1.1 0-0.2 0.1-0.4 0.1-0.6 0.1-0.4 0.1-0.8 0.2-1.1 0-0.2 0.1-0.5 0.1-0.7 0-0.4 0.1-0.7 0.1-1.1 0-0.3 0-0.6 0.1-0.9 0-0.3 0-0.6 0.1-0.8 0.1-1.2 0.1-2.4 0-3.6 0-0.3 0-0.6-0.1-0.8 0-0.3 0-0.6-0.1-0.9 0-0.4-0.1-0.7-0.1-1.1 0-0.2-0.1-0.5-0.1-0.7-0.1-0.4-0.1-0.8-0.2-1.1 0-0.2-0.1-0.4-0.1-0.6-0.1-0.4-0.2-0.8-0.2-1.1 0-0.2-0.1-0.4-0.1-0.6-0.1-0.4-0.2-0.7-0.3-1.1-0.1-0.2-0.1-0.4-0.2-0.6-0.1-0.3-0.2-0.7-0.3-1-0.1-0.2-0.2-0.5-0.2-0.7-0.1-0.3-0.2-0.6-0.3-0.9-0.1-0.3-0.2-0.5-0.3-0.8-0.1-0.3-0.2-0.5-0.3-0.8-0.1-0.3-0.3-0.6-0.4-0.9-0.1-0.2-0.2-0.4-0.3-0.6-0.2-0.3-0.3-0.6-0.5-0.9-0.1-0.2-0.2-0.4-0.3-0.6-0.2-0.3-0.4-0.7-0.6-1-0.1-0.2-0.2-0.3-0.3-0.5-0.2-0.3-0.4-0.7-0.6-1-0.1-0.2-0.2-0.3-0.3-0.5-0.2-0.3-0.4-0.6-0.7-0.9-0.1-0.2-0.3-0.4-0.4-0.5-0.2-0.3-0.4-0.6-0.7-0.8-0.2-0.2-0.4-0.5-0.6-0.7-0.2-0.2-0.4-0.4-0.6-0.6-0.4-0.4-0.8-0.9-1.2-1.3L675.5 47.8c-14.1-14.1-36.9-14.1-50.9 0l0 0c-14.1 14.1-14.1 36.9 0 50.9l116 116L196.5 214.7c-19.9 0-36 16.1-36 36l0 0c0 19.9 16.1 36 36 36l631 0c0 0 0 0 0 0 0.6 0 1.2 0 1.8 0C829.6 286.7 829.9 286.7 830.1 286.6z"  horiz-adv-x="1024" />

    
    <glyph glyph-name="plussquareo" unicode="&#61046;" d="M864.96875 736.96875L864.96875 736.96875 864.96875 736.96875l0-706.03125 0 0-705.9375 0 0 0L159.03125 736.96875l0 0L864.96875 736.96875M864.96875 804.46875l-705.9375 0c-37.3125 0-67.5-30.1875-67.5-67.5l0-706.03125c0-37.3125 30.1875-67.5 67.5-67.5l706.03125 0c37.3125 0 67.5 30.1875 67.5 67.5L932.5625 736.96875C932.46875 774.28125 902.28125 804.46875 864.96875 804.46875L864.96875 804.46875zM718.25 417.28125L546.21875 417.28125 546.21875 589.3125c0 18.65625-15.09375 33.75-33.75 33.75l0 0c-18.65625 0-33.75-15.09375-33.75-33.75l0-172.03125L305.75 417.28125c-18.65625 0-33.75-15.09375-33.75-33.75l0 0c0-18.65625 15.09375-33.75 33.75-33.75l172.96875 0L478.71875 178.6875c0-18.65625 15.09375-33.75 33.75-33.75l0 0c18.65625 0 33.75 15.09375 33.75 33.75L546.21875 349.78125 718.25 349.78125c18.65625 0 33.75 15.09375 33.75 33.75l0 0C752 402.1875 736.90625 417.28125 718.25 417.28125z"  horiz-adv-x="1024" />

    
    <glyph glyph-name="ellipsis" unicode="&#61048;" d="M257.2 408m-64 0a64 64 0 1 0 128 0 64 64 0 1 0-128 0ZM513 408m-64 0a64 64 0 1 0 128 0 64 64 0 1 0-128 0ZM768.8 408m-64 0a64 64 0 1 0 128 0 64 64 0 1 0-128 0Z"  horiz-adv-x="1024" />

    
    <glyph glyph-name="logout" unicode="&#61067;" d="M778.3 122.8c-34.8-36.1-75.6-64.5-121.4-84.4-47.4-20.6-97.8-31-150-31-100.6 0-195.2 39.2-266.3 110.3C169.4 188.8 130.3 283.4 130.3 384s39.2 195.2 110.3 266.3c71.1 71.1 165.7 110.3 266.3 110.3s195.2-39.2 266.3-110.3c14.1-14.1 36.9-14.1 50.9 0 14.1 14.1 14.1 36.9 0 50.9C783 742.5 735 774.8 681.6 797.4c-55.3 23.4-114.1 35.3-174.7 35.3S387.6 820.8 332.3 797.4c-53.4-22.6-101.4-54.9-142.6-96.1s-73.5-89.2-96.1-142.6C70.1 503.3 58.3 444.6 58.3 384s11.9-119.3 35.3-174.7c22.6-53.4 54.9-101.4 96.1-142.6 41.2-41.2 89.2-73.5 142.6-96.1 55.3-23.4 114.1-35.3 174.7-35.3 62.1 0 122.2 12.4 178.7 37 54.5 23.7 103.2 57.5 144.6 100.5 13.8 14.3 13.4 37.1-1 50.9C814.9 137.5 792.1 137.1 778.3 122.8zM962 382.9c-0.2 7.6-2.8 15.1-7.6 21.3L845.7 542.9c-12.3 15.6-34.9 18.4-50.5 6.1-15.6-12.3-18.4-34.9-6.1-50.5L852 418 444 418c-19.9 0-36-16.1-36-36 0-0.1 0-0.1 0-0.2 0-0.1 0-0.1 0-0.2 0-19.9 16.1-36 36-36L852 345.6 789 265.2c-12.3-15.6-9.5-38.3 6.1-50.5 6.6-5.2 14.4-7.7 22.2-7.7 10.7 0 21.3 4.7 28.4 13.8l108.7 138.7c4.9 6.2 7.4 13.7 7.6 21.3 0 0.4 0 0.7 0 1.1C962 382.2 962 382.5 962 382.9z"  horiz-adv-x="1024" />

    
    <glyph glyph-name="link" unicode="&#61068;" d="M541.7 230.3 362.9 51.4c-24.7-24.7-57.6-38.4-92.6-38.4-35 0-67.9 13.6-92.6 38.4S139.2 109 139.2 144c0 35 13.6 67.9 38.4 92.6l178.9 178.9c14.1 14.1 14.1 36.9 0 50.9-14.1 14.1-36.9 14.1-50.9 0L126.7 287.6C88.3 249.2 67.2 198.2 67.2 144c0-54.2 21.1-105.2 59.5-143.5 39.6-39.6 91.6-59.4 143.5-59.4 52 0 104 19.8 143.5 59.4l178.9 178.9c14.1 14.1 14.1 36.9 0 50.9S555.8 244.3 541.7 230.3zM899.4 773.2c-79.2 79.2-207.9 79.2-287.1 0L433.4 594.3c-14.1-14.1-14.1-36.9 0-50.9 14.1-14.1 36.9-14.1 50.9 0l178.9 178.9c51.1 51.1 134.2 51.1 185.3 0 24.7-24.7 38.4-57.6 38.4-92.6s-13.6-67.9-38.4-92.6L669.6 358.2c-14.1-14.1-14.1-36.9 0-50.9 7-7 16.2-10.5 25.5-10.5s18.4 3.5 25.5 10.5l178.9 178.9C978.6 565.3 978.6 694.1 899.4 773.2zM486.5 307.5l102 102c14.1 14.1 14.1 36.9 0 50.9-14.1 14.1-36.9 14.1-50.9 0l-102-102c-14.1-14.1-14.1-36.9 0-50.9 7-7 16.2-10.5 25.5-10.5S479.4 300.5 486.5 307.5z"  horiz-adv-x="1024" />

    
    <glyph glyph-name="areachart" unicode="&#61069;" d="M923-64 99-64c-19.9 0-36 16.1-36 36L63 797c0 19.9 16.1 36 36 36s36-16.1 36-36l0-789 788 0c19.9 0 36-16.1 36-36S942.9-64 923-64zM192.5 96.2 309.2 305c5.4 9.7 17.4 13.5 27.4 8.9l111.2-51.7L566.3 433c6 8.7 17.6 11.6 27 6.8L702.8 384l160.3 251.2c9.3 14.6 31.9 8 31.9-9.3l0-520.1c0-21.3-17.3-38.6-38.6-38.6l-646 0C195.4 67.1 185.8 82.9 192.5 96.2z"  horiz-adv-x="1024" />

    
    <glyph glyph-name="home" unicode="&#61071;" d="M932.4 453.8 560.3 811.9c-27.4 24.8-69.1 24.8-96.5 0L91.6 453.8C76.8 440.5 75.7 417.8 89 403l0 0c13.3-14.8 36.1-15.9 50.8-2.6L512 758.5l372.2-358.1c14.8-13.3 37.5-12.2 50.8 2.6l0 0C948.3 417.8 947.2 440.5 932.4 453.8zM833 321 833 321c-19.9 0-36-16.1-36-36l0-277L654 8 654 248c0 39.8-32.2 72-72 72L442 320c-39.8 0-72-32.2-72-72l0-240L227 8 227 285c0 19.9-16.1 36-36 36l0 0c-19.9 0-36-16.1-36-36l0-277c0-39.8 32.2-72 72-72l570 0c39.8 0 72 32.2 72 72L869 285C869 304.9 852.9 321 833 321zM442 248l140 0 0-240L442 8 442 248z"  horiz-adv-x="1024" />

    
    <glyph glyph-name="star" unicode="&#61073;" d="M956 497.5c-10.4 31-36.9 53.3-69.2 58.2L682.1 587 590.5 782c-7.3 15.6-18.9 28.5-33.6 37.4-13.5 8.2-29.1 12.5-44.9 12.5-15.9 0-31.4-4.3-44.9-12.5-14.7-8.9-26.3-21.8-33.6-37.4L341.9 587l-204.7-31.3c-32.3-4.9-58.8-27.2-69.2-58.2-10.4-31-2.6-64.7 20.2-88.1l150.7-154.5-35.6-218c-4.1-25.2 3-50.7 19.5-70.1 16.6-19.5 40.7-30.7 66.2-30.7 14.6 0 29.1 3.8 42 10.9L512 47l181-100.1c12.9-7.1 27.4-10.9 42-10.9 25.5 0 49.6 11.2 66.2 30.7 16.5 19.4 23.6 44.9 19.5 70.1l-35.6 218 150.7 154.5C958.6 432.7 966.3 466.5 956 497.5z"  horiz-adv-x="1024" />

    
    <glyph glyph-name="staro" unicode="&#61074;" d="M512 759.9c5.3 0 10.7-2.8 13.4-8.5l104.5-222.7c2.1-4.5 6.3-7.6 11.1-8.3l234.9-35.9c11.9-1.8 16.7-16.3 8.3-24.9L713.4 284.5c-3.3-3.4-4.8-8.1-4-12.7l40.2-246.6c1.6-9.5-6-17.2-14.6-17.2-2.4 0-4.8 0.6-7.1 1.9L519.1 125.3c-2.2 1.2-4.7 1.8-7.1 1.8s-4.9-0.6-7.1-1.8L296.1 9.9c-2.3-1.3-4.8-1.9-7.1-1.9-8.5 0-16.1 7.6-14.6 17.2l40.2 246.6c0.8 4.6-0.7 9.3-4 12.7L139.7 459.6c-8.4 8.6-3.5 23.1 8.3 24.9L383 520.4c4.9 0.7 9 3.9 11.1 8.3l104.5 222.7C501.3 757.1 506.7 759.9 512 759.9M512 831.9c-15.9 0-31.4-4.3-44.9-12.5-14.7-8.9-26.3-21.8-33.6-37.4L341.9 587l-204.7-31.3c-32.3-4.9-58.8-27.2-69.2-58.2-10.4-31-2.6-64.7 20.2-88.1l150.7-154.5-35.6-218c-4.1-25.2 3-50.7 19.5-70.1 16.6-19.5 40.7-30.7 66.2-30.7 14.6 0 29.1 3.8 42 10.9L512 47l181-100.1c12.9-7.1 27.4-10.9 42-10.9 25.5 0 49.6 11.2 66.2 30.7 16.5 19.4 23.6 44.9 19.5 70.1l-35.6 218 150.7 154.5c22.8 23.4 30.5 57.1 20.2 88.1-10.4 31-36.9 53.3-69.2 58.2L682.1 587 590.5 782c-7.3 15.6-18.9 28.5-33.6 37.4C543.4 827.6 527.9 831.9 512 831.9L512 831.9z"  horiz-adv-x="1024" />

    
    <glyph glyph-name="filter" unicode="&#61078;" d="M915.30666667 764.51555555c-13.65333333 33.06666667-45.65333333 54.4-81.49333334 54.4L192 818.91555555c-35.73333333 0-67.73333333-21.33333333-81.49333333-54.4-13.76-33.06666667-6.29333333-70.72 18.98666666-96.10666666l291.2-280.85333334 0-279.46666666c0-9.92 3.84-19.52 10.77333334-26.66666667l133.54666666-138.13333333c7.36-7.68 17.38666667-11.73333333 27.62666667-11.73333334 4.8 0 9.70666667 0.96 14.4 2.77333334 14.50666667 5.86666667 24 19.94666667 24 35.62666666L631.04 389.36888889l265.06666667 278.93333333C921.49333333 693.68888889 928.96 731.3422222199999 915.30666667 764.51555555zM841.81333333 722.7022222200001L565.54666667 432.46222222c-7.25333333-7.25333333-11.2-16.96-11.2-27.2l0-343.46666667-56.74666667 61.86666667L497.6 403.55555555c0 10.13333333-4.05333333 19.94666667-11.2 27.09333334L183.89333333 722.7022222200001c-4.48 4.48-3.73333333 9.17333333-2.45333333 12.37333333 1.28 3.2 4.26666667 7.04 10.56 7.04l641.81333333 0c6.29333333 0 9.17333333-3.84 10.56-7.04C845.65333333 731.87555555 846.29333333 727.07555555 841.81333333 722.7022222200001z"  horiz-adv-x="1024" />

    
    <glyph glyph-name="exception" unicode="&#61080;" d="M648.84570313 102.046875c15.55664063 0 28.125 12.83203125 28.12499999 28.65234375L676.97070313 466.6171875c0 15.8203125-12.56835938 28.65234375-28.12500001 28.65234375-15.55664063 0-28.125-12.83203125-28.125-28.65234375l0-335.91796875C620.72070313 114.87890625 633.2890625 102.046875 648.84570313 102.046875zM617.20507813 23.384765620000053a32.25585938 31.640625 90 1 1 63.28124999 1e-8 32.25585938 31.640625 90 1 1-63.28125 0ZM538.71875 612.77929688L259.9296875 612.77929688c-15.8203125 0-28.65234375-14.15039063-28.65234375-31.64062501s12.83203125-31.640625 28.65234375-31.640625l278.7890625 0c15.8203125 0 28.65234375 14.15039063 28.65234375 31.640625S554.5390625 612.77929688 538.71875 612.77929688zM259.9296875 380.484375l111.796875 0c15.8203125 0 28.65234375 14.15039063 28.65234375 31.640625s-12.83203125 31.640625-28.65234375 31.640625L259.9296875 443.765625c-15.8203125 0-28.65234375-14.15039063-28.65234375-31.640625S244.109375 380.484375 259.9296875 380.484375zM259.9296875 211.47070312000005l168.046875 1e-8c15.8203125 0 28.65234375 14.15039063 28.65234375 31.640625 0 17.49023438-12.83203125 31.640625-28.65234375 31.640625L259.9296875 274.75195312000005c-15.8203125 0-28.65234375-14.15039063-28.65234375-31.64062499C231.27734375 225.62109375 244.109375 211.47070312000005 259.9296875 211.47070312000005zM815.31054688 778.62890625L208.68945312 778.62890625C159.29492187 778.62890625 119.12890625 738.46289063 119.12890625 689.06835938l0-606.62109375C119.12890625 33.05273437000005 159.29492187-7.11328125 208.68945312-7.11328125l223.68164063 0c17.49023438 0 31.640625 14.15039063 31.640625 31.640625s-14.15039063 31.640625-31.640625 31.640625L208.68945312 56.16796875c-14.50195313 0-26.27929688 11.77734375-26.27929687 26.27929688L182.41015625 689.06835938c0 14.50195313 11.77734375 26.27929688 26.27929688 26.27929687l606.62109375 0c14.50195313 0 26.27929688-11.77734375 26.27929687-26.27929688l0-606.62109375c0-14.50195313-11.77734375-26.27929688-26.27929687-26.27929687l-61.171875 0c-17.49023438 0-31.640625-14.15039063-31.640625-31.640625s14.15039063-31.640625 31.640625-31.640625l61.171875 0c49.39453125 0 89.56054688 40.16601563 89.56054687 89.56054687L904.87109375 689.06835938C904.87109375 738.46289063 864.70507813 778.62890625 815.31054688 778.62890625z"  horiz-adv-x="1024" />

    
    <glyph glyph-name="meho" unicode="&#61081;" d="M512 834C263.4453125 834 62 632.5546875 62 384s201.4453125-450 450-450 450 201.4453125 450 450S760.5546875 834 512 834zM285.41796875 445.171875c-29.09179688 0-52.734375 23.64257813-52.734375 52.734375s23.64257813 52.734375 52.734375 52.734375 52.734375-23.64257813 52.734375-52.734375S314.50976562 445.171875 285.41796875 445.171875zM626.9609375 150.38671875l-232.03125 0c-17.49023438 0-31.640625 14.15039063-31.640625 31.640625s14.15039063 31.640625 31.640625 31.640625l232.03125 0c17.49023438 0 31.640625-14.15039063 31.640625-31.640625S644.45117188 150.38671875 626.9609375 150.38671875zM738.31835938 445.171875c-29.09179688 0-52.734375 23.64257813-52.73437501 52.734375s23.64257813 52.734375 52.734375 52.734375 52.734375-23.64257813 52.734375-52.734375S767.41015625 445.171875 738.31835938 445.171875z"  horiz-adv-x="1024" />

    
    <glyph glyph-name="meh" unicode="&#61082;" d="M512 834C263.4453125 834 62 632.5546875 62 384s201.4453125-450 450-450 450 201.4453125 450 450S760.5546875 834 512 834zM785.42773438 110.57226562000005c-35.5078125-35.5078125-76.90429688-63.45703125-122.95898438-82.88085937C614.83203125 7.4765625 564.20703125-2.71875 512-2.71875c-52.20703125 0-102.83203125 10.1953125-150.46875 30.32226563-46.0546875 19.51171875-87.36328125 47.37304688-122.95898438 82.88085937-35.5078125 35.5078125-63.45703125 76.90429688-82.88085937 122.95898438C135.4765625 281.16796875 125.28125 331.79296875 125.28125 384c0 52.20703125 10.1953125 102.83203125 30.32226563 150.46875 19.51171875 46.0546875 47.37304688 87.36328125 82.88085937 122.95898438 35.5078125 35.5078125 76.90429688 63.45703125 122.95898438 82.88085937C409.16796875 760.5234375 459.79296875 770.71875 512 770.71875c52.20703125 0 102.83203125-10.1953125 150.46875-30.32226563 46.0546875-19.51171875 87.36328125-47.37304688 122.95898438-82.88085937 35.5078125-35.5078125 63.45703125-76.90429688 82.88085937-122.95898438C888.5234375 486.83203125 898.71875 436.20703125 898.71875 384c0-52.20703125-10.1953125-102.83203125-30.32226563-150.46875C848.88476563 187.4765625 821.0234375 146.08007812000005 785.42773438 110.57226562000005zM285.41796875 497.90625m-52.734375 0a52.734375 52.734375 0 1 1 105.46875 0 52.734375 52.734375 0 1 1-105.46875 0ZM738.31835938 497.90625m-52.73437501 0a52.734375 52.734375 0 1 1 105.46875001 0 52.734375 52.734375 0 1 1-105.46875 0ZM626.9609375 213.66796875l-232.03125 0c-17.49023438 0-31.640625-14.15039063-31.640625-31.640625s14.15039063-31.640625 31.640625-31.640625l232.03125 0c17.49023438 0 31.640625 14.15039063 31.640625 31.640625S644.45117188 213.66796875 626.9609375 213.66796875z"  horiz-adv-x="1024" />

    
    <glyph glyph-name="shopping-cart" unicode="&#61083;" d="M922.9 194.10000000000002L327.4 194.10000000000002l29.9 60.9 496.8 0.9c16.8 0 31.2 12 34.2 28.6l68.8 385.1c1.8 10.1-0.9 20.5-7.5 28.4-6.5 7.8-16.2 12.4-26.6 12.5L291 712.6l-5.4 25.4c-3.4 16.2-18 28-34.6 28L96.5 766c-19.4 0-35.3-15.8-35.3-35.3 0-19.5 15.8-35.3 35.3-35.3l125.9 0L246 583.2l58.1-281.3-74.8-122.1c-7.9-10.7-9.1-24.8-3-36.8 6-11.9 18.1-19.4 31.5-19.4l62.8 0c-13.3-17.6-20.6-39.3-20.6-61.7 0-56.6 46-102.6 102.6-102.6s102.6 46 102.6 102.6c0 22.3-7.4 44-20.6 61.7l161.1 0c-13.3-17.6-20.6-39.3-20.6-61.7 0-56.6 46-102.6 102.6-102.6s102.6 46 102.6 102.6c0 22.3-7.4 44-20.6 61.7l113.3 0c19.4 0 35.3 15.8 35.3 35.3C958.2 178.29999999999995 942.4 194.10000000000002 922.9 194.10000000000002zM305.7 643l575.8-1.9-56.4-315.8-452.3-0.8L305.7 643zM402.6 30.299999999999955c-17.4 0-31.6 14.2-31.6 31.6 0 17.4 14.2 31.6 31.6 31.6s31.6-14.2 31.6-31.6C434.2 44.39999999999998 420 30.299999999999955 402.6 30.299999999999955zM727.7 30.299999999999955c-17.4 0-31.6 14.2-31.6 31.6 0 17.4 14.2 31.6 31.6 31.6s31.6-14.2 31.6-31.6C759.3 44.39999999999998 745.1 30.299999999999955 727.7 30.299999999999955z"  horiz-adv-x="1024" />

    
    <glyph glyph-name="save" unicode="&#61084;" d="M659.09333333 793.70666667L179.09333333 793.70666667c-42.45333333 0-76.8-34.34666667-76.8-76.8l0-664.53333334c0-42.45333333 34.34666667-76.8 76.8-76.8l664.53333334 0c42.45333333 0 76.8 34.34666667 76.8 76.8L920.42666667 532.48 659.09333333 793.70666667zM316.58666667 716.90666667l231.46666666 0 0-219.62666667c0-21.22666667-17.17333333-38.4-38.4-38.4l-154.66666666 0c-21.22666667 0-38.4 17.17333333-38.4 38.4L316.58666667 716.90666667zM843.62666667 52.37333333000004l-664.53333334 0 0 664.53333334 60.69333334 0 0-219.62666667c0-63.57333333 51.62666667-115.2 115.2-115.2l154.66666666 0c63.57333333 0 115.2 51.62666667 115.2 115.2L624.85333333 716.90666667l2.45333334 0 216.21333333-216.21333334L843.52 52.37333333000004zM465.92 535.6800000000001c21.22666667 0 38.4 17.17333333 38.4 38.4l0 45.86666667c0 21.22666667-17.17333333 38.4-38.4 38.4s-38.4-17.17333333-38.4-38.4l0-45.86666667C427.52 552.8533333299999 444.69333333 535.6800000000001 465.92 535.6800000000001z"  horiz-adv-x="1024" />

    
    <glyph glyph-name="user" unicode="&#61085;" d="M819.4 103c-16.8 39.7-40.9 75.4-71.5 106-30.6 30.6-66.3 54.7-106 71.5-13.5 5.7-27.4 10.5-41.4 14.4 39.6 13.4 75.9 35.8 106.3 66.2 52 52 80.7 121.2 80.7 194.7s-28.6 142.7-80.7 194.7c-52 52-121.2 80.7-194.7 80.7s-142.7-28.6-194.7-80.7c-52-52-80.7-121.2-80.7-194.7s28.6-142.7 80.7-194.7c30.4-30.4 66.7-52.8 106.3-66.2-14-3.9-27.9-8.6-41.4-14.4-39.7-16.8-75.4-40.9-106-71.5-30.6-30.6-54.7-66.3-71.5-106-17.4-41.2-26.2-84.8-26.2-129.9 0-19.9 16.1-36 36-36s36 16.1 36 36c0 69.9 27.2 135.6 76.6 185 49.4 49.4 115.1 76.6 185 76.6 69.9 0 135.6-27.2 185-76.6s76.6-115.1 76.6-185c0-19.9 16.1-36 36-36s36 16.1 36 36C845.6 18.2 836.8 61.8 819.4 103zM308.6 555.8c0 112.2 91.3 203.4 203.4 203.4S715.4 668 715.4 555.8 624.2 352.4 512 352.4 308.6 443.7 308.6 555.8z"  horiz-adv-x="1024" />

    
    </font>
</defs>
</svg>
